<?xml version="1.0" standalone="no"?>
<!DOCTYPE svg PUBLIC "-//W3C//DTD SVG 1.1//EN" "http://www.w3.org/Graphics/SVG/1.1/DTD/svg11.dtd" >
<svg xmlns="http://www.w3.org/2000/svg">
<metadata>Generated by IcoMoon</metadata>
<defs>
<font id="iconfont" horiz-adv-x="1024">
<font-face units-per-em="1024" ascent="960" descent="-64" />
<missing-glyph horiz-adv-x="1024" />
<glyph unicode="&#x20;" horiz-adv-x="512" d="" />
<glyph unicode="&#xe900;" glyph-name="load" d="M959.6 507.8c-2.8 17.4-6.2 34.6-10.6 51.6-5.6 21.6-12.8 43-21.6 63.6-17.8 42.4-42.2 82-71.8 117.2-32 37.8-70.6 70.4-113.4 95.4-42.2 24.8-88.2 42.4-136.2 52.2-24.8 5-49.8 8-75.2 8.2-19.8 0.2-39.6-0.6-59.2-2.4-51-5-101.4-19.2-147.8-41-39.8-18.8-76.8-43.2-109.6-72.4s-61.4-63.2-84.4-100.6c-25.4-41.6-44.4-87-54.8-134.6-8.4-38-12.4-77.2-10.4-116.2 1.8-37.8 7.6-75.6 19-111.8 7.2-23 15.8-45.4 26.6-67.2 10.6-21.4 23-42 36.8-61.4 27.6-38.6 61.2-72.8 99.6-101 39.2-29 83.4-51.4 129.8-66.2 48.4-15.4 99.8-22.6 150.6-20.8 49.6 1.6 98.8 11.2 145.2 29 44.6 17.2 86.4 41.8 123 72.6 18.4 15.6 34.8 33.2 50.2 51.8 15.6 18.8 29.6 38.6 41.2 60 10 18.4 18.4 37.6 25.6 57 3.6 9.6 7 19.2 9.8 29.2 3 10.6 5.2 21.6 7.2 32.4 3 17 4.2 34.6 2.6 51.8-1.4-7.6-2.6-15-4.4-22.4-2.2-8.6-5-17-8.2-25.2-6.4-17.4-14.4-34.2-22-51-9.8-21.4-21.2-41.8-33.6-61.6-6.4-10.2-13-20.2-20.2-29.8s-15.4-18.8-23.6-27.8-34.2-34.4-54-48.8c-20.2-14.8-41.6-27.8-64.2-38.6-45.2-22-94.6-35.2-144.6-39.6-51.2-4.4-103.4 0.6-152.6 15.2-46.8 13.8-91.2 36.2-130.2 65.6-37.8 28.6-70.6 63.8-96.4 103.6-27 40.6-45.6 86.4-55.8 134.2-2.6 12.4-4.6 25.2-6 37.8-1.2 10.8-2.2 21.8-2.6 32.8-0.6 22.6 0.8 46 4.2 68.4 7.4 49.2 23.4 96.6 48.2 139.8 22 38.6 50.6 73.4 84.2 102.8 33.6 29.6 72 53.4 113.6 70.2 24 9.8 49.2 17 74.8 21.8 13 2.4 26 4.4 39 5.4 6.4 0.6 12.6 0.6 19 1.2 2.6 0 5.2-0.2 7.8-0.2 43.4 0.8 87-4.8 128.4-17.8 44.6-14 86.6-36.6 123-66 38.2-30.8 70-68.8 94-111.6 20.4-36.4 35-75.6 43.8-116.4 2-9.4 3.6-18.8 5.2-28.2 1.4-8.6 6.2-16.6 13.6-21.4 15.6-10.4 37.4-3.4 45 13.4 2.6 5.8 3.4 12 2.4 17.8z" />
<glyph unicode="&#xe901;" glyph-name="iconfontxing" horiz-adv-x="1045" d="M984.887 623.747c-77.864 29.917-209.92 77.884-242.166 89.59-20.741 27.789-106.195 142.075-157.736 208.314-14.436 18.593-37.105 29.756-60.617 29.857h-0.321c-22.408 0-43.329-10.22-57.424-28.070-52.184-66.138-140.288-182.192-161.411-210.020-31.945-11.505-162.776-58.749-241.242-88.767-24.656-9.417-42.225-26.925-49.473-49.272-7.349-22.648-3.373-48.429 10.923-70.716 45.638-71.218 124.426-186.408 143.962-214.879 0.602-34.796 3.172-176.048 6.505-261.12 1.165-30.258 10.963-52.405 29.134-65.777 8.654-6.385 22.026-12.609 41.301-12.609 8.895 0 19.034 1.325 30.519 4.538 80.735 22.608 213.614 62.886 246.563 72.925 33.029-10.36 166.731-52.124 246.503-74.551 13.573-3.775 27.869 4.277 31.704 18.111 3.795 13.834-4.216 28.17-17.93 32.025-90.273 25.379-250.9 75.957-252.506 76.459-4.959 1.566-10.2 1.546-15.099 0.060-1.606-0.482-161.33-49.232-252.988-74.872-12.77-3.574-22.93-3.574-27.728-0.080-4.618 3.393-7.549 12.81-8.051 25.801-3.755 96.497-6.566 266.14-6.586 267.846-0.080 5.16-1.687 10.18-4.618 14.436-0.944 1.365-95.834 139.324-147.476 219.979-5.803 9.035-7.71 18.593-5.22 26.222 2.952 9.116 11.846 14.195 18.793 16.846 88.927 33.993 245.88 90.413 247.447 90.975 4.678 1.687 8.794 4.718 11.826 8.714 1.044 1.385 106.416 140.549 165.386 215.301 5.582 7.068 12.91 8.553 17.288 8.493 7.811-0.040 15.601-3.855 20.36-9.979 58.368-75.033 160.708-212.329 161.732-213.695 3.012-4.056 7.168-7.128 11.886-8.835 1.586-0.582 160.206-57.926 248.451-91.859 7.489-2.851 16.906-7.931 19.456-15.842 1.707-5.381 0.301-12.348-3.795-18.613-52.485-80.394-150.367-228.131-150.408-228.131-2.711-4.116-4.216-8.895-4.357-13.814l-4.096-165.707c-0.361-14.376 10.883-26.323 25.078-26.664 13.493 0.261 26.042 11.003 26.383 25.339l3.895 158.178c19.195 29.013 100.332 151.532 146.452 222.168 12.79 19.617 16.364 42.667 9.778 63.227-4.819 15.199-17.448 35.94-50.076 48.469v0z" />
<glyph unicode="&#xe902;" glyph-name="shouye" horiz-adv-x="1366" d="M924.331-43.52h-471.040c-57.344 0-102.4 45.056-102.4 102.4v389.12h-112.64c-16.384 0-30.72 10.24-36.864 24.576-6.144 16.384-2.048 32.768 8.192 45.056l425.984 423.936c24.576 24.576 63.488 24.576 86.016 0l466.944-466.944c8.192-8.192 8.192-20.48 0-28.672s-20.48-8.192-28.672 0l-466.944 466.944c-8.192 8.192-20.48 8.192-28.672 0l-425.984-423.936h133.12c12.288 0 20.48-8.192 20.48-20.48v-409.6c0-34.816 26.624-61.44 61.44-61.44h471.040c34.816 0 61.44 26.624 61.44 61.44v399.36c0 12.288 8.192 20.48 20.48 20.48s20.48-8.192 20.48-20.48v-399.36c0-57.344-47.104-102.4-102.4-102.4z" />
<glyph unicode="&#xe903;" glyph-name="date" d="M798.323 800.413v104.118h-156.177v-104.118h-260.295v104.118h-156.177v-104.118h-156.177v-832.94h885.002v832.94h-156.177zM277.735 19.53h-156.177v156.177h156.177v-156.177zM277.735 227.764h-156.177v156.177h156.177v-156.177zM277.735 436h-156.177v156.177h156.177v-156.177zM277.735 852.47h52.059v-156.177h-52.059v156.177zM485.968 19.53h-156.177v156.177h156.177v-156.177zM485.968 227.764h-156.177v156.177h156.177v-156.177zM485.968 436h-156.177v156.177h156.177v-156.177zM694.205 19.53h-156.177v156.177h156.177v-156.177zM694.205 227.764h-156.177v156.177h156.177v-156.177zM694.205 436h-156.177v156.177h156.177v-156.177zM694.205 852.47h52.059v-156.177h-52.059v156.177zM902.438 19.53h-156.177v156.177h156.177v-156.177zM902.438 227.764h-156.177v156.177h156.177v-156.177zM902.438 436h-156.177v156.177h156.177v-156.177z" />
<glyph unicode="&#xe904;" glyph-name="jiantou" d="M274.778 487.036l410.382 410.366c17.211 17.21 45.111 17.21 62.322 0 17.202-17.21 17.202-45.101 0-62.311l-379.23-379.215 375.335-375.319c19.353-19.36 21.097-48.996 3.895-66.206-17.211-17.21-46.856-15.465-66.209 3.895l-402.601 402.584c-0.684 0.684-1.34 1.382-1.979 2.091-0.651 0.578-1.292 1.172-1.916 1.795-17.211 17.211-17.211 45.11 0 62.32z" />
<glyph unicode="&#xe905;" glyph-name="back" d="M274.778 487.036l410.382 410.366c17.211 17.21 45.111 17.21 62.322 0 17.202-17.21 17.202-45.101 0-62.311l-379.23-379.215 375.335-375.319c19.353-19.36 21.097-48.996 3.895-66.206-17.211-17.21-46.856-15.465-66.209 3.895l-402.601 402.584c-0.684 0.684-1.34 1.382-1.979 2.091-0.651 0.578-1.292 1.172-1.916 1.795-17.211 17.211-17.211 45.11 0 62.32z" />
<glyph unicode="&#xe906;" glyph-name="mima" d="M510.375 389.668c-32.224 0-58.337-26.113-58.337-58.337 0-17.282 7.51-32.796 19.446-43.479v-53.745c0-21.484 17.408-38.893 38.892-38.893 21.478 0 38.893 17.408 38.893 38.893v53.745c11.936 10.682 19.446 26.198 19.446 43.479-0.002 32.224-26.115 58.337-58.34 58.337v0 0zM782.617 564.67h-38.892v97.224c0 128.884-104.467 233.345-233.352 233.345-128.888 0-233.356-104.46-233.356-233.345v-97.224h-38.891c-53.703 0-97.229-43.526-97.229-97.224v-369.467c0-53.692 43.526-97.218 97.229-97.218h544.49c53.687 0 97.229 43.521 97.229 97.218v369.468c0 53.702-43.543 97.223-97.229 97.223v0 0zM510.375 856.348c107.391 0 194.459-87.064 194.459-194.448v-97.229h-388.896v97.229h-0.026c0 107.383 87.074 194.448 194.463 194.448v0 0zM840.956 97.985c0-32.224-26.113-58.332-58.339-58.332h-544.489c-32.226 0-58.339 26.108-58.339 58.332v369.462c0 32.226 26.113 58.339 58.339 58.339h544.49c32.226 0 58.339-26.113 58.339-58.339v-369.462h-0.001z" />
<glyph unicode="&#xe907;" glyph-name="mima1" d="M840.467 526.139h-81.193v129.057c0 132.963-109.474 241.141-244.007 241.141-134.559 0-244.033-108.179-244.033-241.141v-129.057h-81.191c-16.688 0-30.264-13.423-30.264-29.918v-465.736c0-16.495 13.577-29.917 30.264-29.917h650.425c16.703 0 30.279 13.423 30.279 29.917v465.736c0 16.496-13.575 29.918-30.279 29.918zM302.45 655.196c0 115.954 95.46 210.297 212.817 210.297 117.33 0 212.794-94.343 212.794-210.297v-129.057h-425.611v129.057zM839.532 31.423l-648.551-0.939-0.938 464.798 81.191 0.118v-0.118h488.040v0.823l80.258 0.116v-464.797zM515.256 389.202c-53.407 0-96.707-42.786-96.707-95.579 0-37.644 22.044-70.207 54.073-85.78v-37.603c0-19.12 19.093-34.611 42.634-34.611s42.634 15.492 42.634 34.611v37.604c32.028 15.573 54.076 48.135 54.076 85.779-0.001 52.792-43.304 95.579-96.71 95.579z" />
<glyph unicode="&#xe908;" glyph-name="mima2" d="M751.552 580.48h-449.6v85.632c0 107.648 91.008 192 207.36 192.64 113.728-0.64 199.36-83.264 199.36-192.64v-42.816c0-11.84 9.6-21.376 21.376-21.376 11.84 0 21.44 9.6 21.44 21.376v42.816c0 133.376-103.36 234.176-240.832 235.456h-2.688c-139.776-1.28-248.896-104.256-248.896-235.456v-87.808c-72.384-10.496-128.384-72.384-128.384-147.712v-278.336c0-82.624 67.2-149.824 149.824-149.824h470.976c82.624 0 149.824 67.264 149.824 149.824v278.336c0.064 82.624-67.136 149.888-149.76 149.888zM858.56 152.32c0-59.008-48-107.008-107.008-107.008h-470.976c-59.008 0-107.008 48-107.008 107.008v278.272c0 59.008 48 107.008 107.008 107.008h470.976c59.008 0 107.008-48 107.008-107.008v-278.272zM653.824 319.552c0 70.848-57.664 128.448-128.448 128.448s-128.448-57.6-128.448-128.448c0-63.808 46.848-116.48 107.904-126.4-0.064-0.768-0.832-1.28-0.832-2.048v-64.192c0-11.84 9.6-21.44 21.376-21.44s21.376 9.6 21.376 21.44v64.192c0 0.832-0.768 1.28-0.832 2.048 60.992 9.92 107.904 62.592 107.904 126.4zM525.376 233.92c-47.232 0-85.632 38.4-85.632 85.632s38.4 85.632 85.632 85.632 85.632-38.4 85.632-85.632c0-47.232-38.4-85.632-85.632-85.632z" />
<glyph unicode="&#xe909;" glyph-name="unie63c" d="M931.254 748.080q28.704 0 44.132-7.732 7.732-3.318 13.239-7.732t8.827-9.921q6.638-11.050 5.508-23.161 0-4.414-0.564-8.261t-1.094-7.167-1.659-6.638l-13.239-36.4-20.972-60.69-23.161-65.104q-14.334-41.943-17.652-51.865-6.638-18.747-14.899-32.551t-18.218-21.501q-19.877-15.463-48.545-15.463h-525.171l15.463-88.265h503.105q48.545 0 48.545-40.813 0-19.877-9.921-34.211-8.827-14.334-37.53-14.334h-524.077q-6.638 0-12.675 1.094t-11.050 2.753-9.391 4.978q-13.239 8.827-22.066 23.161-4.414 6.638-8.261 14.334t-7.167 16.558q-5.508 20.972-7.732 31.986l-5.508 28.704-11.050 56.276-14.334 76.118-16.558 84.945-43.038 221.754h-75.024q-15.463 0-24.29 6.638-9.921 7.732-17.652 17.652-2.224 6.638-4.978 12.145t-3.847 11.050-1.659 11.050-0.564 9.921q0 19.877 13.239 33.116 7.732 5.508 16.558 8.827t19.877 3.318h101.503q19.877 0 31.986-5.508 5.508-3.318 10.485-6.638t9.391-7.732q6.638-9.921 8.827-18.747l5.508-17.652q1.094-4.414 3.318-16.558v-5.508l4.414-28.704 5.508-37.53h684.046zM763.552 187.603q8.827 0 18.218-1.659t18.218-4.978q17.652-6.638 29.798-19.877 13.239-13.239 20.972-28.704 6.638-16.558 6.638-35.306 0-8.827-1.659-18.218t-4.978-17.088q-7.732-15.463-20.972-29.798-12.145-12.145-29.798-18.747-16.558-7.732-36.4-7.732t-36.4 7.732q-17.652 7.732-28.704 18.747-13.239 14.334-19.877 29.798-7.732 16.558-7.732 35.306 0 8.827 1.659 17.652t6.073 17.652q6.638 15.463 19.877 28.704 5.508 6.638 13.239 11.581t15.463 8.261q5.508 2.224 11.581 3.847t12.145 2.224 12.675 0.564zM347.617 189.828q18.747 0 36.4-6.638 16.558-6.638 29.798-19.877 6.638-6.638 11.581-13.805t8.261-14.899q7.732-17.652 7.732-35.871t-7.732-34.741q-6.638-15.463-19.877-29.798-13.239-12.145-30.327-19.313t-35.871-7.167q-19.877 0-36.4 6.638-16.558 7.732-29.798 19.877-13.239 14.334-19.877 29.798-6.638 16.558-6.638 34.741t6.638 35.871q3.318 7.732 8.261 14.899t11.581 13.805q4.414 4.414 9.921 7.732l8.827 6.638q5.508 3.318 11.050 5.508 4.414 1.094 8.827 2.753t8.827 2.224 9.391 1.094 9.391 0.564z" />
<glyph unicode="&#xe90a;" glyph-name="jia" d="M873.351 503.112h-307.432v307.391c0 21.221-17.177 38.398-38.397 38.482-21.221-0.084-38.399-17.261-38.399-38.482v-307.391h-307.433c-21.179 0-38.398-17.176-38.398-38.356 0-21.263 17.219-38.44 38.398-38.44h307.433v-307.431c0-21.222 17.178-38.441 38.399-38.441 21.219 0 38.397 17.219 38.397 38.441v307.431h307.432c21.222 0 38.442 17.177 38.398 38.44 0 21.18-17.218 38.356-38.398 38.356z" />
<glyph unicode="&#xe90b;" glyph-name="yingyong" d="M896-21.333h-256c-47.125 0-85.333 38.208-85.333 85.333v256c0 47.125 38.208 85.333 85.333 85.333h256c47.125 0 85.333-38.208 85.333-85.333v-256c0-47.125-38.208-85.333-85.333-85.333zM938.667 320c0 23.573-19.093 42.667-42.667 42.667h-256c-23.573 0-42.667-19.093-42.667-42.667v-256c0-23.573 19.093-42.667 42.667-42.667h256c23.573 0 42.667 19.093 42.667 42.667v256zM896 490.667h-256c-47.125 0-85.333 38.208-85.333 85.333v256c0 47.125 38.208 85.333 85.333 85.333h256c47.125 0 85.333-38.208 85.333-85.333v-256c0-47.125-38.208-85.333-85.333-85.333zM938.667 832c0 23.573-19.093 42.667-42.667 42.667h-256c-23.573 0-42.667-19.093-42.667-42.667v-256c0-23.573 19.093-42.667 42.667-42.667h256c23.573 0 42.667 19.093 42.667 42.667v256zM384-21.333h-256c-47.125 0-85.333 38.208-85.333 85.333v256c0 47.125 38.208 85.333 85.333 85.333h256c47.125 0 85.333-38.208 85.333-85.333v-256c0-47.125-38.208-85.333-85.333-85.333zM426.667 320c0 23.573-19.093 42.667-42.667 42.667h-256c-23.573 0-42.667-19.093-42.667-42.667v-256c0-23.573 19.093-42.667 42.667-42.667h256c23.573 0 42.667 19.093 42.667 42.667v256zM384 490.667h-256c-47.125 0-85.333 38.208-85.333 85.333v256c0 47.125 38.208 85.333 85.333 85.333h256c47.125 0 85.333-38.208 85.333-85.333v-256c0-47.125-38.208-85.333-85.333-85.333zM426.667 832c0 23.573-19.093 42.667-42.667 42.667h-256c-23.573 0-42.667-19.093-42.667-42.667v-256c0-23.573 19.093-42.667 42.667-42.667h256c23.573 0 42.667 19.093 42.667 42.667v256z" />
<glyph unicode="&#xe90c;" glyph-name="fenxiang" horiz-adv-x="956" d="M644.67 860.638c22.618-1.463 37.359-20.255 53.451-33.871 72.13-63.803 144.148-127.831 216.278-191.634 0-9.115 0-27.569 0-36.796-71.68-63.691-143.698-127.044-215.378-190.734-16.429-13.841-31.283-33.083-54.351-34.658-0.225 26.106-0.338 52.213-0.563 78.319 63.24 55.701 127.719 110.052 190.734 165.978-64.141 54.463-127.269 109.939-190.734 165.19 0.225 25.994 0.338 52.1 0.563 78.207zM142.235 458.578c103.975 137.396 283.457 196.135 450.447 195.235 0.9-16.992 10.803-42.985-8.102-53.338-135.708-10.69-283.232-45.686-376.742-152.025-58.064-61.215-67.516-162.94-16.204-231.244 31.058-55.589 89.797-85.971 144.148-114.328 22.055-8.102 11.14-34.996 14.741-52.663-4.839-2.363-14.516-7.089-19.355-9.452-74.943 36.121-150.899 81.020-194.335 154.725-50.637 78.207-47.262 186.683 5.401 263.089z" />
<glyph unicode="&#xe90d;" glyph-name="confontqian" d="M511.949 960c-282.324 0-511.949-229.625-511.949-511.949s229.727-512.051 511.949-512.051 512.051 229.625 512.051 512.051-229.625 511.949-512.051 511.949zM511.949-9.050c-252.035 0-457.101 205.066-457.101 457.101s205.066 456.998 457.101 456.998 457.101-204.964 457.101-456.998-204.964-457.101-457.101-457.101zM635.868 715.845l-81.351-149.809c-21.694-40.624-34.894-67.639-39.806-81.044h-1.433c-14.326 32.54-54.643 109.389-121.157 230.853h-76.542l142.339-244.36h-116.654v-54.029h136.608v-74.393h-136.608v-54.643h136.711v-108.366h67.844v108.468h131.799v54.643h-131.697v74.393h131.799v54.029h-113.073l143.669 244.258h-72.448z" />
<glyph unicode="&#xe90e;" glyph-name="kehuguanli" horiz-adv-x="1180" d="M881.652 438.323c69.679 53.143 114.902 136.793 114.902 230.975 0 160.291-130.411 290.702-290.785 290.702-13.472 0-26.654-1.247-39.589-3.023 15.668-28.4 29.595-58.989 42.074-91.24 107.363-1.367 194.327-88.829 194.327-196.439 0-85.934-55.757-158.395-132.733-185.13-0.993-37.636-3.396-74.613-8.038-110.26 183.010-27.198 323.99-184.921 323.99-375.352h94.017c0 199.135-123.695 369.755-298.167 439.767v0zM649.849 375.73c69.722 53.143 114.902 136.793 114.902 230.974 0 160.291-130.405 290.747-290.747 290.747-160.335 0-290.746-130.411-290.746-290.747 0-94.181 45.224-177.83 114.909-230.974-174.472-69.969-298.167-240.589-298.167-439.73h94.016c0 209.546 170.45 379.957 379.988 379.957 209.546 0 379.995-170.411 379.995-379.957h94.017c0.037 199.141-123.657 369.716-298.167 439.73v0zM474.049 803.433c108.482 0 196.73-88.255 196.73-196.73 0-108.443-88.248-196.691-196.73-196.691s-196.775 88.248-196.775 196.691c0.045 108.476 88.293 196.73 196.775 196.73v0z" />
<glyph unicode="&#xe90f;" glyph-name="shu" d="M1002.359 754.556c0 0-54.533 45.314-110.271 69.166-60.648 29.070-146.357 27.734-146.357 27.734s-60.398 4.458-122.298-24.726c-61.9-29.185-107.596-68.832-107.596-68.832s-63.147 48.251-118.957 73.509-136.334 20.049-136.334 20.049-76.634-3.894-125.942-26.055-94.596-74.854-94.596-74.854v-679.631c0 0 69.706 60.245 111.272 77.185s106.593 16.373 106.593 16.373 77.884-9.335 124.303-28.067c46.421-18.734 133.661-88.212 133.661-88.212s55.612 59.26 100.245 81.529c75.685 39.093 150.71 33.413 150.71 33.413s46.104-2.005 110.261-26.063c58.329-21.873 126.482-67.495 126.482-67.495l-1.175 684.978zM492.111 123.041c0 0-119.348 94.35-234.238 92.221-108.264-2.005-149.699-29.404-177.767-57.471 1.003 33.079-0.505 568.060-0.505 568.060s41.604 74.816 181.947 80.831c119.291 10.024 222.21-74.178 228.558-90.217 3.008-21.051 2.005-593.424 2.005-593.424zM958.25 145.093c-28.068 28.067-103.252 70.168-211.516 72.173-114.891 2.128-205.341-95.229-205.341-95.229s-1.003 572.374 2.005 593.424c10.025 16.038 88.216 96.231 228.558 90.217 121.639-5.295 187.865-78.972 187.865-78.972s-1.457-548.806-1.571-581.613z" />
<glyph unicode="&#xe910;" glyph-name="compose" d="M885.6 760.8l-60.8 60.8c-14 13.8-36.4 13.8-50.2 0l-63.6-63.6 111-111 63.6 63.4c13.8 14.2 13.8 36.6 0 50.4zM692.2 739l-344-355-28.2-128 128 28.2 353.2 346zM768 448v-300c0-10.2-7.8-20.2-18.4-20.2s-538 0.2-538 0.2c-11.2 0-19.6 10.8-19.6 20s0 536 0 536c0 10 9.4 20 21.2 20h298.8l64 64h-401.2c-26 0-46.8-20.6-46.8-46.6v-610.6c0-25.8 21-46.8 46.8-46.8h610.6c25.8 0 46.6 21 46.6 46.8v401.2l-64-64z" />
<glyph unicode="&#xe911;" glyph-name="baobiao" d="M856.392 960h-688.783c-40.509 0-73.359-32.84-73.359-73.359v-875.54c0-40.509 32.85-73.359 73.359-73.359l490.854 0.328 270.961 270.961h0.328v677.611c0 40.52-32.85 73.359-73.359 73.359zM605.563 261.929v-227.297h-415.15v828.477h643.185v-601.18h-228.035zM658.463 12.892v196.137h196.137l-196.137-196.137zM271.862 753.715h480.276v-76.042h-480.276v76.042zM271.862 602.962h480.276v-76.042h-480.276v76.042zM271.862 452.209h480.276v-76.042h-480.276v76.042z" />
<glyph unicode="&#xe912;" glyph-name="geren" d="M511.017 910.215c73.727 0 140.501-29.901 188.842-78.239 48.337-48.338 78.236-115.113 78.236-188.841s-29.899-140.526-78.236-188.842c-12.113-12.11-25.37-23.052-39.611-32.657 56.418-21.341 107.074-54.393 149-96.197 76.444-76.274 123.739-181.555 123.739-297.73 0-20.068-16.286-36.353-36.376-36.353-20.063 0-36.349 16.285-36.349 36.353 0 96.256-39.048 183.35-102.169 246.303-63.101 62.933-150.297 101.917-246.638 102.041h-0.875c-96.384-0.124-183.58-39.108-246.66-102.041-63.123-62.954-102.168-150.046-102.168-246.303 0-20.068-16.287-36.353-36.373-36.353-20.066 0-36.352 16.285-36.352 36.353 0 116.175 47.294 221.456 123.758 297.73 41.885 41.804 92.541 74.855 148.961 96.197-14.221 9.604-27.48 20.547-39.591 32.657-48.317 48.316-78.216 115.114-78.216 188.842s29.899 140.503 78.216 188.841c48.338 48.338 115.115 78.239 188.863 78.239v0zM648.429 780.548c-35.162 35.162-83.751 56.941-137.412 56.941s-102.272-21.779-137.434-56.941-56.942-83.751-56.942-137.413c0-53.662 21.78-102.251 56.942-137.435 35.055-35.057 83.501-56.793 136.995-56.919h0.854c53.494 0.126 101.936 21.862 136.995 56.919 35.162 35.183 56.94 83.773 56.94 137.435s-21.777 102.251-56.939 137.413z" />
<glyph unicode="&#xe913;" glyph-name="loadings" horiz-adv-x="944" d="M470.244 909.028c36.636-0.569 80.555 5.575 109.34-19.57-2.389-37.66-15.36-73.842-25.486-109.909-47.104-1.138-94.549-5.12-141.54-0.114-7.509 40.846-18.091 81.010-25.031 121.97 27.534 2.048 55.182 4.551 82.716 7.623zM333.483 887.865c51.541 7.623 33.223-87.609 50.745-118.101-41.756-18.204-79.986-44.146-121.856-61.44-29.355 28.9-56.889 60.302-82.261 92.843 43.236 38.002 97.394 69.063 153.372 86.699zM151.552 763.733c36.523-1.593 62.805-57.913 87.154-87.609-21.276-32.768-42.325-65.65-60.53-100.238-40.619-6.030-80.441 14.791-119.922 23.097-4.437 65.308 49.607 121.515 93.298 164.75zM46.649 570.311c103.765-2.617 138.126-67.129 111.047-165.433-39.367-17.408-81.92-25.828-123.904-34.702-3.413 64.284-23.78 142.45 12.857 200.135zM885.532 537.884c55.182 3.072 34.816-87.381 31.744-128.91 18.318-96.597-84.764-33.678-129.365-26.169 1.479 76.117-7.623 166.457 97.621 155.079zM151.211 364.26c39.708-6.599 36.978-84.878 77.71-110.478-27.876-33.337-57.913-66.105-92.615-92.388-41.756 50.631-79.986 114.574-90.681 181.248 35.385 6.599 70.542 14.108 105.586 21.618zM778.695 341.39c35.385 5.916 75.435-16.839 108.658-31.744-7.964-59.392-47.445-120.263-91.022-159.175-32.199 24.576-59.961 54.841-88.292 83.968 22.642 36.295 46.876 71.452 70.656 106.951zM241.892 217.031c47.104-30.606 155.307-42.325 109.113-120.491-17.18-123.904-136.761 2.958-191.488 35.954 25.714 29.696 52.679 58.823 82.375 84.537zM676.068 204.629c34.133-3.186 60.302-59.961 88.292-86.812-49.266-42.212-107.292-77.141-171.236-90.795-5.916 40.391-27.42 80.327-22.528 121.856 35.499 17.977 72.363 33.564 105.472 55.751zM400.043 140.345c44.487 2.048 88.974 1.934 133.461-0.569 9.216-40.732 21.845-81.351 24.69-123.335-64.398-12.060-130.048-7.282-194.56 0.455 7.964 41.984 17.749 85.106 36.409 123.449z" />
<glyph unicode="&#xe914;" glyph-name="tupians" horiz-adv-x="1211" d="M124.034 742.652c-3.894 80.478 71.824 148.408 149.706 148.408 176.82-2.308 354.217 7.067 530.461-5.048 0.288-9.663 1.010-28.989 1.298-38.508-45.719-17.307-95.045-9.952-142.639-11.105-128.937-0.288-258.019 0.865-386.957-0.288-48.748 0.577-97.496-42.114-92.881-92.881 0.144-187.349-1.298-374.697 0.577-561.902 0-59.565 66.921-86.679 117.832-84.372 197.877 0.721 395.754-0.288 593.632 0.433 46.729 1.298 102.688 31.008 102.833 83.795 2.163 177.686-0.433 355.515 1.010 533.201-1.010 29.278 3.75 63.315-18.894 86.247-25.816 35.479-73.411 31.297-109.755 47.883-10.673 18.317-2.019 45.143 22.355 42.691 82.785 8.077 168.599-62.45 164.705-148.264 0.577-182.589 0.288-365.179 0.144-547.768 4.615-80.766-71.68-149.85-149.994-149.273-210.569-0.865-421.282-0.721-631.995-0.144-78.747-0.865-156.773 68.651-151.437 149.994-0.144 182.301-0.288 364.602 0 546.903zM380.322 766.161c84.516 28.701 185.041-22.066 210.281-107.304 25.528-94.323-64.757-186.339-157.927-179.993-82.064-5.192-166.436 64.613-161.677 149.706-2.308 65.046 52.21 116.534 109.323 137.591zM393.447 710.923c-56.825-15.576-85.814-92.737-44.998-138.312 48.46-66.488 172.349-43.123 185.618 40.095 12.98 74.853-76.872 124.899-140.62 98.217zM694.157 540.16c42.691 8.798 67.065-37.21 91.872-63.603 66.488-84.805 122.88-176.82 178.407-268.98 15.288-29.855-33.749-38.652-42.402-12.692-66.776 106.15-131.389 214.752-214.175 309.508-53.363-60.719-102.688-124.611-151.437-189.079-39.662-15.865-64.469 39.95-95.333 57.979-84.66-72.113-149.417-163.263-229.607-239.414-5.913 6.779-17.74 20.624-23.653 27.403 68.219 84.805 140.043 167.734 223.117 238.26 38.797 33.46 78.459-14.134 109.9-34.903 48.604 60.142 89.131 130.524 153.312 175.522z" />
<glyph unicode="&#xe915;" glyph-name="wodes" horiz-adv-x="1149" d="M449.73 844.454c51.338 52.030 144.744 50.923 194.422-2.906 118.59-116.099 234.551-234.966 353.003-351.204 12.454-13.146 27.122-25.185 34.179-42.344-5.812-16.329-17.436-26.154-34.733-29.613-129.661 128.969-258.214 259.183-388.566 387.736-30.305 31.135-82.474 35.425-115.684 6.642-117.898-110.149-225.142-231.507-345.808-338.474 27.814-3.875 69.604 14.668 84.826-18.266 2.491-122.603 0.83-245.483 0.554-368.086 3.183-15.914-9.548-54.244 17.989-51.615 203.693 1.107 408.078-5.535 611.494 3.459-1.937 138.794-2.629 277.864-0.138 416.519 9.963 32.242 50.923 20.065 51.062-9.686 0.138-129.107-0.138-258.352 0-387.598 4.428-37.916-29.613-75.416-68.221-72.649-198.435-0.415-396.869-0.415-595.304 0.138-39.161-2.768-73.756 35.010-68.497 73.617 0.554 120.804-0.692 241.747 0.969 362.551-38.608 7.749-103.507-22.002-120.112 25.323 8.303 20.618 26.569 34.595 41.514 50.37 116.376 114.577 230.815 231.23 347.053 346.084zM390.919 487.299c41.237 21.31 89.531 7.611 133.95 11.070 58.257-4.151 119.282 10.655 175.187-10.378-1.384-137.548-0.554-275.096 0.138-412.506-8.718 0-26.015 0-34.595 0-1.522 128.969-1.245 257.937-0.138 386.906-79.568 0-159.135-0.138-238.703 0.138 1.384-129.245 2.352-258.491-0.277-387.598-8.718 0.277-26.154 0.969-34.871 1.384-0.692 136.995 0.83 273.989-0.692 410.984z" />
<glyph unicode="&#xe916;" glyph-name="qian" d="M761.111 785.144h-93.469l-105.094-193.643c-28.027-52.478-45.17-87.36-51.429-104.648h-1.789c-18.489 42.038-70.66 141.465-156.525 298.291h-98.834l183.804-315.732h-150.711v-69.764h176.648v-96.152h-176.648v-70.659h176.648v-139.978h87.652v139.978h170.388v70.659h-170.387v96.152h170.388v69.764h-146.237l185.593 315.732z" />
<glyph unicode="&#xe917;" glyph-name="tishis" horiz-adv-x="951" d="M470.126 917.029c12.251-0.183 36.571-0.183 48.823-0.366-0.549-27.063-0.914-54.309-1.463-81.371 126.537-14.263 243.931-97.829 291.291-217.234 43.703-101.303 18.103-213.577 27.794-320 19.383-59.611 54.309-112.457 81.371-168.594-92.526-2.926-185.051-1.28-277.577-1.463-3.657-85.394-76.8-161.829-164.937-154.149-88.686-7.497-158.903 69.669-165.303 154.149-92.16 0.183-184.32-0.731-276.48 0.731 27.246 56.686 61.074 110.446 82.834 169.691 11.337 100.937-15.726 206.811 20.663 304.274 40.96 113.189 142.629 206.811 264.046 222.72-2.926-11.337-8.594-33.829-11.52-45.166-74.24-33.463-147.2-78.994-185.234-153.966-84.297-138.423 13.714-317.44-87.771-449.646 240.091 1.463 480-1.463 720.091 1.646-106.057 130.377-4.754 310.491-89.6 448.549-53.029 101.851-164.754 159.086-276.663 164.937-0.183 41.691-0.183 83.383-0.366 125.257zM354.56 127.451c19.566-52.663 58.514-106.423 120.686-106.971 63.086-1.646 102.766 54.126 121.783 107.337-80.823 0.183-161.646 0.366-242.469-0.366z" />
<glyph unicode="&#xe918;" glyph-name="qing" d="M975.744 408.484h-84.837c-23.442 0-42.429 18.987-42.429 42.429 0 23.421 18.987 42.429 42.429 42.429h84.837c23.442 0 42.429-19.008 42.429-42.429 0-23.442-18.987-42.429-42.429-42.429v0zM809.061 690.893c-16.569-16.569-43.426-16.569-59.995 0s-16.569 43.426 0 59.995l59.995 59.995c16.569 16.569 43.447 16.569 59.995 0 16.569-16.569 16.569-43.426 0-59.995l-59.995-59.995zM509.087 196.381c-140.589 0-254.554 113.944-254.554 254.533s113.965 254.533 254.554 254.533c140.589 0 254.533-113.944 254.533-254.533s-113.944-254.533-254.533-254.533v0zM509.087 620.609c-93.726 0-169.696-75.969-169.696-169.696s75.969-169.696 169.696-169.696c93.726 0 169.696 75.969 169.696 169.696s-75.969 169.696-169.696 169.696v0zM509.087 790.304c-23.421 0-42.429 18.987-42.429 42.429v84.837c0 23.442 19.008 42.429 42.429 42.429s42.429-18.987 42.429-42.429v-84.837c0-23.442-19.008-42.429-42.429-42.429v0zM209.112 690.893l-59.995 59.995c-16.569 16.569-16.569 43.426 0 59.995s43.426 16.569 59.995 0l59.995-59.995c16.569-16.569 16.569-43.426 0-59.995s-43.426-16.569-59.995 0v0zM169.696 450.913c0-23.442-18.987-42.429-42.429-42.429h-84.837c-23.442 0-42.429 18.987-42.429 42.429 0 23.421 18.987 42.429 42.429 42.429h84.837c23.442 0 42.429-19.008 42.429-42.429v0zM209.112 210.934c16.569 16.569 43.426 16.569 59.995 0s16.569-43.426 0-59.995l-59.995-59.995c-16.569-16.569-43.426-16.569-59.995 0-16.569 16.547-16.569 43.426 0 59.995l59.995 59.995zM509.087 111.522c23.421 0 42.429-18.987 42.429-42.429v-84.837c0-23.442-19.008-42.429-42.429-42.429s-42.429 18.987-42.429 42.429v84.837c0 23.442 19.008 42.429 42.429 42.429v0zM809.061 210.934l59.995-59.995c16.569-16.569 16.569-43.447 0-59.995-16.547-16.569-43.426-16.569-59.995 0l-59.995 59.995c-16.569 16.569-16.569 43.426 0 59.995s43.426 16.569 59.995 0v0z" />
<glyph unicode="&#xe919;" glyph-name="iconfont-qian" d="M761.111 785.144h-93.469l-105.094-193.643c-28.027-52.478-45.17-87.36-51.429-104.648h-1.789c-18.489 42.038-70.66 141.465-156.525 298.291h-98.834l183.804-315.732h-150.711v-69.764h176.648v-96.152h-176.648v-70.659h176.648v-139.978h87.652v139.978h170.388v70.659h-170.387v96.152h170.388v69.764h-146.237l185.593 315.732z" />
<glyph unicode="&#xe91a;" glyph-name="left" d="M643.939 777.020l-358.553-358.567 358.976-358.99h94.492l0.405 0.41-358.559 358.58 358.547 358.568h-95.31z" />
<glyph unicode="&#xe91b;" glyph-name="right" d="M725.333 198.912v-49.579l-426.667 257.195v43.392l426.667 254.080v-52.693l-389.035-223.104 389.035-229.291z" />
<glyph unicode="&#xe91c;" glyph-name="right-thin" d="M361.499 782.266l333.913-333.913-32.914-32.914-333.913 333.913 32.914 32.914zM694.197 447.119l-332.688-332.688-32.915 32.915 332.688 332.688 32.915-32.915z" />
<glyph unicode="&#xe91d;" glyph-name="suo" d="M878.848 531.285c-18.489 18.489-44.231 30.009-72.704 30.009h-7.908v112.156c0 74.524-29.98 141.824-79.417 191.232-49.095 49.095-116.964 79.73-191.204 79.73-73.33 0-140.004-29.724-189.127-77.625l-2.702-2.105c-48.811-49.38-79.701-116.679-79.701-191.232v-112.156h-7.623c-28.188 0-54.272-11.52-73.045-30.009h0.284l-0.284-0.284c-18.204-18.204-30.037-44.26-30.037-72.732v-377.628c0-28.473 11.804-54.244 30.037-73.017 18.773-18.489 44.857-30.293 73.045-30.293h557.653c26.937 0 51.513 9.984 69.945 27.563l2.759 2.759c19.115 18.802 30.606 44.544 30.606 73.017v377.572c0.028 28.501-11.463 54.556-30.578 73.045v0zM306.859 666.596v0c0 60.388 24.832 115.428 64.74 155.335l2.19 2.503c40.277 38.542 94.236 62.265 153.913 62.265 60.444 0 115.428-25.23 155.335-64.768 39.936-39.908 64.398-94.948 64.398-155.335v-104.619h-440.576v104.619zM862.919 55.836v0c0-5.433-2.418-10.61-6.172-14.393l-1.365-1.337c-3.129-2.759-7.538-4.523-12.686-4.523h-630.841c-5.12 0-10.667 2.105-14.052 5.86-3.755 3.783-5.803 8.96-5.803 14.393v427.179c0 5.518 2.076 11.008 5.831 14.393v0c3.385 3.47 8.903 6.201 14.052 6.201h630.812c5.803 0 10.268-2.702 14.052-6.201 3.783-4.124 6.172-8.875 6.172-14.393v-427.179zM527.588 409.799v0c-28.501 0-54.272-11.264-72.732-30.322-19.086-18.176-30.293-44.203-30.293-72.704 0-27.904 11.207-53.931 30.293-72.789 12.743-12.686 29.099-22.386 46.962-26.652v-52.736c0-14.564 11.236-25.742 25.771-25.742 13.938 0 25.145 11.179 25.145 25.742v52.736c18.489 4.267 34.56 13.966 47.588 26.652 18.176 18.83 30.265 44.885 30.265 72.789 0 28.501-12.117 54.556-30.265 72.704-19.086 19.029-44.828 30.322-72.732 30.322v0zM578.958 255.26v0c-12.857-12.402-29.98-21.39-49.664-21.39h-3.413c-19.684 0-37.66 8.988-50.489 21.39-13.227 13.71-20.508 30.805-20.508 51.371 0 20.48 7.282 38.94 20.508 52.224 13.284 12.8 31.687 21.333 52.196 21.333 19.684 0 38.514-8.533 51.371-21.333 13.227-13.284 21.333-31.744 21.333-52.224 0-20.594-8.107-37.689-21.333-51.371v0z" />
<glyph unicode="&#xe91e;" glyph-name="wuzis" horiz-adv-x="1061" d="M439.406 885.211c46.994 49.92 134.4 51.931 182.491 2.377 131.84-130.194 259.84-264.594 391.497-395.154 24.137-11.703 7.131-61.806-19.931-39.863-114.834 111.543-224.183 228.571-337.554 341.577-29.074 26.514-51.2 64-89.6 77.897-40.777 19.017-88.686-1.463-116.114-33.829-112.64-116.663-228.571-230.4-339.749-348.526 29.806 0.366 59.794 0.366 89.6-1.463 3.291-147.383-2.377-294.766 2.743-442.149 15.909-24.137 47.543-13.714 71.497-16.64 183.771 1.28 367.543-0.366 551.314 0.914 22.857-2.377 35.109 8.229 36.754 31.451 3.109 140.069-2.56 280.503 2.194 420.571 8.777 1.646 26.514 4.937 35.474 6.766 6.949-141.531 0.549-283.429 3.109-424.96 5.12-36.023-20.297-80.274-61.257-73.326-207.909 0-415.634-0.366-623.36 0.183-39.863-5.303-61.989 39.68-57.6 73.509 0.366 128.366-0.914 256.731 1.097 384.914-40.777 0.366-81.737-0.731-122.331 4.389-0.731 6.217-2.011 18.651-2.743 24.869 135.497 134.034 267.154 272.274 402.469 406.491z" />
<glyph unicode="&#xe91f;" glyph-name="nanxing" d="M426.715 118.857l6.729 0.11c140.069 3.584 251.319 119.625 247.954 258.633-3.328 137.655-114.505 245.541-253.184 245.541l-6.729-0.11c-140.142-3.584-251.392-119.625-248.027-258.67 3.328-137.691 114.578-245.504 253.257-245.504zM426.715 45.714c-176.823 0-322.121 140.178-326.4 316.891-4.315 179.566 138.606 328.923 319.269 333.531 2.853 0.11 5.778 0.11 8.667 0.11 176.75 0 322.048-140.142 326.327-316.855 4.315-179.566-138.606-328.923-319.269-333.568-2.889-0.073-5.742-0.11-8.594-0.11v0 0zM837.925 791.077l-249.198-4.608c-16.896-0.329-30.903 13.531-31.195 31.013l-0.512 27.355c-0.293 17.481 13.129 31.854 30.098 32.183l249.198 4.608c16.896 0.329 30.903-13.531 31.195-31.013l0.512-27.355c0.293-17.445-13.166-31.854-30.098-32.183v0zM869.742 543.415l-26.587-0.439c-16.969-0.293-30.903 13.641-31.195 31.086l-4.315 255.634c-0.293 17.481 13.202 31.854 30.171 32.146l26.587 0.512c16.896 0.293 30.903-13.641 31.195-31.122l4.279-255.634c0.329-17.518-13.239-31.927-30.135-32.183v0zM879.799 786.542c-20.773-22.199-43.703-10.679-65.17 10.715-21.504 21.394-33.499 44.617-12.69 66.816 20.736 22.199 55.003 22.821 76.544 1.39 21.467-21.467 22.089-56.759 1.317-78.921v0zM821.979 746.021l-11.959-20.334c-5.23 2.523-7.205-0.11-7.205-0.11l-132.864-131.255c-6.51-7.57-4.791-15.726-4.791-15.726l-5.632-12.032-76.398 76.069c6.254-1.353 14.373 4.718 14.373 4.718l147.2 137.472c4.718 4.059 4.315 9.216 4.169 10.277 0 0.11 0 0.219 0 0.219s39.314 12.142 40.229 12.654c0.951 0.439 15.579-7.131 16.75-7.936 1.243-0.805 7.351-7.314 7.351-7.314l10.496-23.662-1.719-23.040z" />
<glyph unicode="&#xe920;" glyph-name="nvxing" d="M586.386 339.895c125.001 0 226.706 101.705 226.706 226.706s-101.705 226.779-226.706 226.779c-125.001 0-226.706-101.742-226.706-226.779 0-125.001 101.705-226.706 226.706-226.706zM586.386 266.752c-165.595 0-299.886 134.29-299.886 299.886 0 165.632 134.29 299.886 299.886 299.886 165.632 0 299.886-134.217 299.886-299.886 0-165.595-134.254-299.886-299.886-299.886v0 0zM159.159 97.061c-4.681 0-9.326 1.755-12.91 5.339l-25.856 25.856c-7.131 7.131-7.131 18.725 0 25.856l90.514 90.514-90.514 90.514c-7.131 7.131-7.131 18.725 0 25.856l25.856 25.856c3.584 3.584 8.265 5.413 12.91 5.413 4.718 0 9.399-1.792 12.983-5.413l90.514-90.478 116.297 116.37c3.584 3.547 8.265 5.339 12.983 5.339 4.681 0 9.326-1.792 12.91-5.339l25.856-25.893c7.131-7.131 7.131-18.651 0-25.856l-116.37-116.37 90.514-90.514c7.131-7.131 7.131-18.725 0-25.856l-25.893-25.856c-3.547-3.584-8.192-5.339-12.873-5.339-4.718 0-9.399 1.755-12.91 5.339l-90.514 90.514-90.514-90.514c-3.621-3.584-8.265-5.339-12.983-5.339v0 0z" />
<glyph unicode="&#xe921;" glyph-name="saomiao" d="M890.584 799.173v-196.341h61.589v232.136c0 56.423-51.589 51.575-51.589 51.575h-232.146v-61.575h196.352c-0.001 0 25.794-0.807 25.794-25.795zM136.755 799.172c0 24.988 25.793 25.795 25.793 25.795h196.354v61.575h-232.147c0 0-51.589 4.848-51.589-51.575v-232.137h61.589v196.342zM890.583 96.93v0c0.001-25.002-25.794-25.807-25.794-25.807h-196.352v-61.575h232.146c0 0 51.589-4.811 51.589 51.575v232.162h-61.589v-196.355zM136.755 96.93v196.355h-61.588v-232.162c0-56.389 51.589-51.573 51.589-51.573h232.148v61.573h-196.355c0 0-25.794 0.808-25.794 25.807zM75.167 492.848h877.007v-78.588h-877.007v78.588z" />
<glyph unicode="&#xe922;" glyph-name="cha" d="M162.511 735.619l61.863 61.863 637.102-637.102-61.863-61.863-637.102 637.102zM799.619 797.489l61.863-61.863-637.102-637.102-61.863 61.863 637.102 637.102z" />
<glyph unicode="&#xe923;" glyph-name="sousuo" d="M937.728 121.446l-214.221 216.018c-2.493 2.5-5.248 4.408-7.879 6.488 36.186 55.986 57.316 122.674 57.316 194.508 0 197.346-158.627 357.302-354.43 357.302-195.694 0-354.43-159.956-354.43-357.302 0-197.374 158.736-357.295 354.43-357.295 71.227 0 137.455 21.358 193.076 57.846 2.025-2.714 3.884-5.413 6.337-7.893l214.248-216.044c14.628-14.704 33.678-22.032 52.756-22.032 19.091 0 38.155 7.328 52.77 21.998 29.103 29.409 29.103 77.021 0.026 106.408zM418.515 293.992c-133.681 0-242.499 109.685-242.499 244.468 0 134.762 108.818 244.476 242.499 244.476s242.499-109.713 242.499-244.476c0-134.782-108.818-244.468-242.499-244.468z" />
<glyph unicode="&#xe924;" glyph-name="plus" d="M103.883 511.874c-21.534 0-38.995-17.473-38.995-39.023v-49.701c0-21.526 17.457-39.023 38.995-39.023h816.235c21.534 0 38.995 17.473 38.995 39.023v49.701c0 21.531-17.457 39.023-38.995 39.023h-816.235zM577.326 856.117c0 21.534-17.473 38.995-39.023 38.995h-49.701c-21.526 0-39.023-17.457-39.023-38.995v-816.235c0-21.534 17.473-38.995 39.023-38.995h49.701c21.531 0 39.023 17.457 39.023 38.995v816.235z" />
<glyph unicode="&#xe925;" glyph-name="tbxia" d="M513.254 223.974c-5.248 0-10.266 2.15-13.875 5.939l-441.19 461.978c-5.299 5.581-6.784 13.747-3.763 20.813s9.958 11.648 17.638 11.648h882.304c7.68 0 14.618-4.582 17.638-11.648s1.536-15.258-3.763-20.813l-441.114-462.003c-3.61-3.763-8.627-5.914-13.875-5.914z" />
<glyph unicode="&#xe926;" glyph-name="sousuo2" d="M52.018 809.752h917.917c16.824 0 30.59 13.766 30.59 30.59v0c0 16.824-13.766 30.59-30.59 30.59h-917.917c-16.824 0-30.59-13.766-30.59-30.59v0c0-16.824 13.766-30.59 30.59-30.59zM52.018 595.577h183.583c16.824 0 30.59 13.766 30.59 30.59v0c0 16.824-13.766 30.59-30.59 30.59h-183.583c-16.824 0-30.59-13.766-30.59-30.59v0c0-16.824 13.766-30.59 30.59-30.59zM52.018 381.408h122.403c16.824 0 30.59 13.766 30.59 30.59v0c0 16.824-13.766 30.59-30.59 30.59h-122.403c-16.824 0-30.59-13.766-30.59-30.59v0c0-16.825 13.766-30.59 30.59-30.59zM52.018 197.821h183.583c16.824 0 30.59 13.766 30.59 30.59v0c0 16.824-13.766 30.59-30.59 30.59h-183.583c-16.824 0-30.59-13.766-30.59-30.59v0c0-16.825 13.766-30.59 30.59-30.59zM449.775 75.417h-397.757c-16.824 0-30.59-13.766-30.59-30.59v0c0-16.824 13.766-30.59 30.59-30.59h397.757c16.824 0 30.59 13.766 30.59 30.59v0c0.001 16.824-13.764 30.59-30.59 30.59zM1000.343 75.279l0.181 0.181-170.931 179.415c45.931 49.501 74.205 114.989 74.205 187.152 0 154.108-128.058 279.059-286.060 279.059-157.905 0-285.963-125-285.963-279.059 0-154.201 128.081-276.441 285.963-279.153 61.742-1.060 101.822 9.514 138.026 34.993l183.635-183.529c7.834-8.074 18.794-13.098 30.933-13.098 23.808 0 43.108 19.3 43.108 43.108 0 12.138-5.023 23.097-13.096 30.93zM618.065 228.413c-126.716 0-229.466 95.895-229.466 214.174s102.75 214.17 229.466 214.17c126.715 0 229.47-95.89 229.47-214.17s-102.756-214.174-229.47-214.174z" />
<glyph unicode="&#xe927;" glyph-name="shizhong" d="M512.032 935.072c-271.936 0-493.12-221.184-493.12-493.088s221.184-493.024 493.12-493.024c271.872 0 493.056 221.12 493.056 493.024s-221.184 493.088-493.056 493.088zM512.032 2.944c-242.144 0-439.136 197.056-439.136 439.104 0 242.080 196.96 439.104 439.136 439.104 242.080 0 439.104-196.928 439.104-439.104 0-242.112-197.024-439.104-439.104-439.104zM522.752 763.456h-53.984v-374.976h4.672l315.744-128.064 20.288 50.048-286.72 116.224z" />
<glyph unicode="&#xe928;" glyph-name="tuichu" d="M887.001 376.652h-0.309l-3.019 2.873v85.165h-408.803v63.158h408.803v87.848l120.957-115.143v-0.333l-117.629-123.568zM670.469 899.522h-502.406l192.699-95.441c25.613-12.686 46.418-43.792 46.418-69.458l3.021-566.228c2.208 0.513 4.506 0.793 6.871 0.793h254.162v199.425h60.478v-229.665c0-16.7-13.539-30.239-30.239-30.239h-284.401c-2.253 0-4.444 0.254-6.556 0.721l0.875-164.043c0-8.609-6.962-11.892-15.544-7.336l-338.816 187.962c-20.826 11.056-37.655 37.15-37.623 58.298l1.115 737.182c-0.746 2.629-1.153 5.399-1.153 8.266 0 3.269 0.525 6.414 1.485 9.363 1.497 11.231 8.459 18.022 18.28 19.011 3.264 1.205 6.792 1.865 10.474 1.865h651.099c16.7 0 30.239-13.538 30.239-30.239 0-2.098-0.214-4.147-0.621-6.124 0.407-1.978 0.621-4.026 0.621-6.124v-289.76h-60.478v271.77z" />
<glyph unicode="&#xe929;" glyph-name="xiangzis" horiz-adv-x="1207" d="M317.623 918.491c38.034 33.829 93.44 20.297 139.703 23.406 133.669-4.206 268.069 5.851 401.371-4.389 62.354-16.091 64.914-89.783 75.52-141.166 54.126-0.183 108.617 2.56 162.743-2.743 43.703-1.829 78.080-45.349 73.326-88.32 0.549-201.326-1.097-402.834 0.549-604.343-1.097-35.474 5.12-78.080-25.234-104.229-26.331-28.709-68.571-21.943-103.314-23.771-305.189 1.829-610.56-0.731-915.749 1.097-48.457-4.389-90.514 40.046-88.137 87.406-1.28 208.457 0.731 417.097-0.731 625.554-4.206 41.326 14.263 89.783 56.869 102.949 59.794 11.337 121.051 5.303 181.394 6.217 10.789 41.326 9.691 90.331 41.691 122.331zM342.491 877.166c-16.274-39.863-20.48-83.566-30.72-125.074-64.731-2.743-130.011 2.743-194.56-3.657-33.28-1.097-35.474-38.583-35.109-63.634 1.28-206.446-0.549-412.891 0.914-619.154-4.937-36.754 32.731-53.029 63.634-49.189 292.206-0.366 584.594 0.914 876.983-0.549 26.88 0.731 54.309-0.914 80.64 5.486 29.806 14.811 21.211 52.114 23.406 78.994-2.377 200.594 0 401.371-0.914 601.966 2.194 22.309-10.789 46.811-35.657 46.811-64.914 4.937-130.194-0.549-195.109 4.754-7.497 39.314-14.629 78.629-19.383 118.491-16.274 10.24-31.634 25.783-52.297 23.771-134.949 2.011-269.897-0.731-404.846 1.097-25.6-3.474-61.623 7.68-76.983-20.114zM474.514 634.88c79.726 45.897 187.611 49.737 263.314-6.949-35.109-31.817-77.897-8.411-117.76-5.12-126.171 14.629-246.674-104.777-233.874-231.314 3.657-131.84 145.554-235.703 272.823-198.949 130.194 29.074 208.64 190.72 142.994 309.211-16.457 38.4-75.337 69.851-37.303 114.651 125.074-89.417 141.166-288.731 30.354-395.703-104.777-114.103-307.566-102.949-399.177 21.943-98.377 119.771-59.429 320.183 78.629 392.229z" />
<glyph unicode="&#xe92a;" glyph-name="xingssss" horiz-adv-x="1120" d="M539.716 960h31.403c16.657-3.55 34.953-10.513 41.779-27.853 43.827-83.422 83.149-169.165 127.659-252.314 93.798-14.473 187.87-26.897 281.805-41.097 38.366-5.188 58.846-59.529 28.262-86.426-67.174-66.901-136.806-131.345-204.663-197.564 16.794-94.071 32.905-188.279 49.425-282.351 3.004-37.274-41.37-66.082-74.82-49.971-83.558 43.281-167.117 86.562-250.402 130.116-87.518-37.547-171.486-88.064-257.638-130.389-33.314-15.019-76.322 12.425-74.547 49.289 16.93 94.208 31.812 188.826 50.108 282.761-67.857 66.765-138.172 131.209-205.619 198.519-30.037 27.034-9.284 81.101 28.945 86.153 93.662 13.926 187.46 26.761 281.122 40.823 40.141 70.178 70.861 147.456 111.548 215.996 15.019-12.015 20.343-32.085 35.089-44.783-40.687-72.090-69.359-151.689-115.917-219.819-99.669-14.882-200.021-27.307-299.554-43.827 70.588-74.001 149.504-141.312 219.682-216.269-16.384-100.762-35.226-201.25-52.156-302.012 77.414 41.779 155.648 82.057 233.745 122.47 15.974 6.963 31.13 21.845 50.108 16.521 89.839-44.1 177.766-92.843 267.196-137.762-17.203 100.489-35.772 200.704-52.156 301.329 70.724 74.274 148.958 141.995 219.546 215.586-99.533 17.067-200.158 28.535-299.964 44.373-56.388 87.381-92.843 187.46-145.681 277.436-6.827 18.159-29.901 28.672-24.303 51.063z" />
<glyph unicode="&#xe92b;" glyph-name="yous" horiz-adv-x="617" d="M52.775 896.197c-6.827 25.863 28.751 32.164 40.435 13.391 148.217-132.857 296.041-266.371 443.471-400.148 0.394-4.857 1.182-14.572 1.575-19.43-156.357-146.248-322.429-282.256-472.090-435.463-17.723 8.796-5.776 36.103-10.24 52.119 144.41 131.676 289.608 262.695 435.463 392.796-136.271 117.629-266.765 241.822-402.511 360.107 9.452-226.855 2.494-453.842 7.089-680.829-13.391-2.101-26.782-3.938-40.172-5.645-2.494 241.034-1.969 482.068-3.019 723.102z" />
<glyph unicode="&#xe92c;" glyph-name="zuos" horiz-adv-x="604" d="M510.556 896.328c11.815 18.773 47.262 12.734 40.566-13.391-0.788-240.903-1.050-481.805-2.626-722.708-13.653 1.444-27.175 3.282-40.566 5.383 4.726 226.987-2.626 454.105 7.089 680.829-135.614-118.285-266.24-242.347-402.511-360.107 145.592-130.101 290.921-260.595 434.806-392.533 0-17.329 0-34.658-0.131-51.988-39.385 17.198-61.703 57.633-93.998 84.414-123.93 112.509-247.992 224.755-372.972 336.082-15.623 8.008-21.793 31.376-4.989 41.879 145.329 130.363 289.608 262.039 435.331 392.139z" />
<glyph unicode="&#xe92d;" glyph-name="shoujis" horiz-adv-x="1243" d="M400.823 849.847c5.705 2.633 17.262 7.753 22.967 10.386 112.055 6.583 224.695 1.317 337.042 2.779 55.15 3.218 95.525-56.32 90.405-107.52-0.585-204.8 0-409.6-0.293-614.4 3.365-56.759-46.226-113.371-104.887-108.251-93.038-0.146-186.222-0.146-279.259 0-58.075-4.974-110.446 49.737-104.302 107.374 0.293 209.92-0.439 419.694 0.439 629.467-1.609 31.305 14.775 60.27 37.888 80.165zM414.866 798.354c-7.168-199.826-1.024-400.091-3.511-600.064 130.926 0.439 261.998 0.439 392.923 0 0.146 200.704-2.194 401.262 1.317 601.819-67.438 36.864-147.602 11.703-220.891 18.725-56.027-6.144-122.295 17.847-169.838-20.48zM409.746 147.383c1.17-6.29 3.511-19.017 4.681-25.307 9.509-13.605 18.725-27.502 27.648-41.691 45.349-4.535 90.843-2.779 136.192-6.729-2.926 8.338-8.777 24.722-11.849 33.061 12.142 72.85 131.803 29.257 83.675-32.914 41.545 3.95 83.237 1.609 124.635 4.681 22.967 15.653 28.233 43.739 33.646 68.901-132.974 0.878-265.655 0.439-398.629 0zM603.721 109.641c2.487-49.298 43.008 22.967 0 0z" />
<glyph unicode="&#xe92e;" glyph-name="bianji" horiz-adv-x="987" d="M477.074 775.863c49.371 47.909 98.011 96.731 145.554 146.286 114.834-115.383 230.034-230.034 345.051-345.051-49.371-47.909-98.194-96.366-146.103-146.103-114.469 115.2-229.486 230.034-344.503 344.869zM544.731 775.497c93.989-90.149 185.6-182.674 276.48-275.931 25.051 27.246 51.749 53.029 78.811 78.263-93.257 91.063-185.051 183.406-276.846 275.931-25.051-27.063-51.383-53.029-78.446-78.263zM395.886 694.491c11.703 10.423 32.549 39.497 47.909 16.64 108.434-110.446 221.257-217.234 326.949-330.24-127.451-127.269-256.366-253.257-381.44-382.903-115.931-2.743-232.046-0.731-348.16-0.914 1.829 113.371 2.56 226.926-0.183 340.297 116.846 120.503 237.897 236.8 354.926 357.12zM101.303 332.251c57.6-35.474 119.589-64.366 174.994-103.497 37.669-55.040 66.377-115.931 101.851-172.617 106.606 111.177 217.051 218.514 325.669 327.497-91.429 91.429-184.137 181.943-273.92 275.017-109.714-108.617-216.503-220.16-328.594-326.4zM84.48 289.829c1.829-83.566 1.463-167.131 0.366-250.697 83.749 1.28 167.68 1.463 251.429-0.183-35.109 50.103-60.343 106.24-95.269 156.343-50.103 34.56-105.691 60.891-156.526 94.537z" />
<glyph unicode="&#xe92f;" glyph-name="xiangxia" d="M888.306 769.272c15.615 15.617 40.93 15.617 56.545 0v0c15.617-15.615 15.617-40.93 0-56.545l-405.733-405.734c-15.615-15.617-40.928-15.617-56.545 0v0c-15.615 15.615-15.615 40.93 0 56.545l405.733 405.734zM538.619 363.538c15.617-15.615 15.617-40.93 0-56.545v0c-15.615-15.617-40.928-15.617-56.545 0l-405.734 405.734c-15.615 15.615-15.615 40.93 0 56.545v0c15.617 15.617 40.93 15.617 56.547 0l405.732-405.734z" />
<glyph unicode="&#xe930;" glyph-name="iconfont-zanxi" d="M934.219 536.041c-16.178 26.076-44.258 42.367-75.116 43.58l-0.576 0.023-0.57 0.087c-1.431 0.219-2.598 0.32-3.673 0.32l-207.461 0.224 4.754 13.596c13.050 37.316 19.668 76.398 19.668 116.16 0 22.548-2.218 45.285-6.598 67.723l-0.312-0.041-2.088 9.038c-4.523 19.58-15.669 37.348-31.388 50.029-16.183 13.057-35.752 19.959-56.594 19.959-49.838 0-90.385-40.546-90.385-90.385 0-2.384 0.132-4.989 0.416-8.198l0.052-0.594-0.016-0.596c-1.513-54.103-23-105.418-60.502-144.492-35.177-36.651-81.665-59.684-131.771-65.484v-1.545l-126.286-0.211c-1.1 0.138-2.061 0.206-2.938 0.206-13.432 0-24.36-10.925-24.36-24.353l-0.314-415.219c0-13.419 10.925-24.342 24.353-24.342 1.152 0 2.419 0.114 3.873 0.348l0.81 0.13 130.037-0.169c2.758-0.418 4.395-0.423 7.243-0.002l0.749 0.111 487.173-0.204c15.322 1.020 30.085 5.827 43.035 14.057 13.909 8.848 25.216 21.42 32.697 36.355l0.316 0.63 0.4 0.581c1.596 2.323 2.763 4.81 3.471 7.395l74.778 330.032c0.697 2.633 0.934 5.401 0.705 8.226l-0.063 0.79 0.059 0.791c1.454 19.611-3.242 38.781-13.58 55.443zM276.526 130.664l-89.633 0.037 0.345 365.808 89.565 0.2-0.276-366.045zM823.205 144.215l-3.366 1.892c-2.953-3.77-6.54-7.022-10.652-9.634-5.233-3.33-11.010-5.436-17.161-6.253l-1.361-0.182-1.362 0.185c-1.179 0.159-2.196 0.236-3.107 0.236l-460.968 0.187 0.348 372.39 7.707 1.958c43.121 10.953 83.165 32.912 115.804 63.5 32.523 30.479 56.997 68.858 70.777 110.986l3.664 11.201 0.001-0.001c1.875 6.569 3.42 12.996 4.617 19.208 5.108 26.536 4.662 52.604 4.657 52.864l-0.202 10.297 1.271 0.017c3.708 19.72 21.063 34.686 41.848 34.686 23.331 0 42.338-18.864 42.573-42.139 0.357-1.805 5.356-27.586 5.404-56.202 0.061-36.649-4.636-56.149-4.836-56.96l-1.971-8.001-0.117 0.003c-5.432-24.456-13.799-48.017-24.949-70.247l0.245-0.202-3.605-7.279c-1.687-3.408-2.544-7.027-2.544-10.757 0-13.431 10.924-24.359 24.352-24.359l254.25-0.264 0.007-0.847c11.758-2.29 22.228-9.362 28.705-19.805 4.867-7.845 7.062-16.925 6.43-25.965l0.646-0.192-77.106-340.321z" />
<glyph unicode="&#xe931;" glyph-name="iconfont-xingxingsss" d="M908.521 538.298c-2.769 8.657-10.193 15.011-19.223 16.337l-245.76 36.771-109.079 223.348c-4.003 8.145-12.265 13.335-21.341 13.382-10.892-1.327-17.455-5.143-21.481-13.242l-110.801-222.464-245.946-34.816c-8.983-1.233-16.5-7.564-19.34-16.175-2.839-8.657-0.582-18.176 5.981-24.506l177.245-174.196-43.031-244.876c-1.559-8.983 2.071-18.013 9.402-23.436 7.284-5.376 17.012-6.097 25.088-1.885l220.369 114.804 219.415-116.573c3.514-1.885 7.377-2.816 11.148-2.816h0.489c14.266-1.187 24.483 10.519 24.413 23.855 0 3.724-0.815 7.238-2.374 10.356l-39.866 238.778 178.595 172.893c6.54 6.307 8.867 15.825 6.097 24.46v0z" />
<glyph unicode="&#xe932;" glyph-name="yuan" d="M512 960c-282.527 0-512-229.473-512-512s229.473-512 512-512c282.527 0 512 229.473 512 512s-229.473 512-512 512zM512 919.040c260.391 0 471.040-210.649 471.040-471.040s-210.649-471.040-471.040-471.040c-260.391 0-471.040 210.649-471.040 471.040s210.649 471.040 471.040 471.040z" />
<glyph unicode="&#xe933;" glyph-name="duihaoyuan" d="M778.248 658.555l-379.279-379.279h34.48l-172.399 172.399-34.48-34.48 189.639-189.639 396.519 396.519-34.48 34.48zM512-39.619c269.305 0 487.619 218.314 487.619 487.619s-218.314 487.619-487.619 487.619c-269.305 0-487.619-218.314-487.619-487.619s218.314-487.619 487.619-487.619v0zM512 9.143c-242.374 0-438.857 196.483-438.857 438.857s196.483 438.857 438.857 438.857c242.374 0 438.857-196.483 438.857-438.857s-196.483-438.857-438.857-438.857v0z" />
<glyph unicode="&#xe934;" glyph-name="iconfont-xingxing" d="M887.2 499.033c11.753 11.464 16.006 25.693 11.667 39.036s-16.142 22.349-32.386 24.71l-210.637 30.61c-5.109 0.743-13.85 7.087-16.132 11.721l-94.191 190.842c-7.258 14.738-19.476 23.189-33.52 23.189s-26.261-8.45-33.512-23.17l-94.214-190.882c-2.272-4.615-11.010-10.959-16.12-11.701l-210.638-30.61c-16.242-2.359-28.047-11.367-32.386-24.71s-0.085-27.573 11.673-39.042l152.41-148.547c3.697-3.61 7.043-13.905 6.175-18.979l-35.994-209.8c-2.191-12.818 0.529-24.534 7.661-32.991 6.447-7.643 15.681-11.853 26.002-11.853 6.774 0 13.697 1.833 20.576 5.448l188.389 99.043c1.714 0.901 5.464 1.81 9.976 1.81s8.261-0.908 9.973-1.809l188.395-99.045c6.878-3.615 13.801-5.448 20.576-5.448 10.319 0.001 19.553 4.211 25.999 11.854 7.131 8.455 9.852 20.172 7.658 33.001l-35.989 209.778c-0.87 5.084 2.474 15.376 6.156 18.97l152.432 148.575z" />
<glyph unicode="&#xe935;" glyph-name="xings" d="M887.2 499.033c11.753 11.464 16.006 25.693 11.667 39.036s-16.142 22.349-32.386 24.71l-210.637 30.61c-5.109 0.743-13.85 7.087-16.132 11.721l-94.191 190.842c-7.258 14.738-19.476 23.189-33.52 23.189s-26.261-8.45-33.512-23.17l-94.214-190.882c-2.272-4.615-11.010-10.959-16.12-11.701l-210.638-30.61c-16.242-2.359-28.047-11.367-32.386-24.71s-0.085-27.573 11.673-39.042l152.41-148.547c3.697-3.61 7.043-13.905 6.175-18.979l-35.994-209.8c-2.191-12.818 0.529-24.534 7.661-32.991 6.447-7.643 15.681-11.853 26.002-11.853 6.774 0 13.697 1.833 20.576 5.448l188.389 99.043c1.714 0.901 5.464 1.81 9.976 1.81s8.261-0.908 9.973-1.809l188.395-99.045c6.878-3.615 13.801-5.448 20.576-5.448 10.319 0.001 19.553 4.211 25.999 11.854 7.131 8.455 9.852 20.172 7.658 33.001l-35.989 209.778c-0.87 5.084 2.474 15.376 6.156 18.97l152.432 148.575zM699.489 386.627c-15.676-15.305-24.371-42.080-20.673-63.671l31.488-183.536-164.821 86.652c-9.338 4.908-21.229 7.61-33.481 7.61-12.253 0-24.143-2.703-33.485-7.611l-164.818-86.651 31.491 183.549c3.692 21.58-5.003 48.352-20.691 63.674l-133.348 129.968 184.27 26.779c21.714 3.154 44.5 19.716 54.173 39.359l82.408 166.964 82.399-166.948c9.687-19.661 32.473-36.222 54.182-39.376l184.27-26.779-133.364-129.984z" />
<glyph unicode="&#xe936;" glyph-name="mark_del" horiz-adv-x="991" d="M79.112 859.747c18.663 33.197 66.23 35.84 88.526 5.285 113.631-114.952 228.088-229.574 343.701-342.379 119.907 115.943 237.337 234.859 355.097 352.95 38.483 31.215 97.28-7.597 73.497-54.668-6.772-3.138-20.315-9.414-27.086-12.552-114.622-114.292-230.4-227.427-343.535-343.205 112.805-116.439 229.574-229.079 343.701-344.361 6.441-3.138 19.654-9.579 26.095-12.717 10.24-22.462 16.021-49.714 3.138-72.341-25.765-18.333-64.083-7.432-77.956 20.48-116.604 117.925-234.199 235.355-352.785 351.298-120.403-119.081-241.961-237.502-359.226-359.721-17.012-35.179-90.343-23.618-75.809 22.462-4.129 24.444 22.297 35.675 34.684 52.026 113.961 114.622 230.070 226.932 342.545 342.71-101.409 104.547-206.121 205.956-308.852 309.182-24.279 26.426-58.963 47.401-65.734 85.554z" />
<glyph unicode="&#xe937;" horiz-adv-x="975" d="M647.883 866.215c25.681 31.858 76.394 31.208 103.863 2.113 51.85-47.787 97.036-102.563 152.462-146.286 24.381-33.808 20.805-89.234-17.392-112.152-176.843-164.815-342.959-340.846-518.989-506.636 143.035 5.201 286.232-0.163 429.43 1.788 31.858 1.138 63.39-2.601 94.436-9.752 23.731-37.222 1.788-94.598-44.861-95.411-260.063-4.226-521.265 6.339-780.516-6.989-34.621 3.738-48.599 41.448-47.137 71.68 6.502 72.33 34.296 140.109 50.062 210.651 5.364 27.307 27.794 45.674 45.999 65.016 177.981 174.893 354.011 351.736 532.643 525.978zM144.010 277.008c52.013-50.875 103.213-102.4 154.738-153.6 188.383 180.744 367.99 370.753 559.299 548.084-53.15 52.338-104.513 106.301-158.314 157.826-184.483-184.808-371.241-367.502-555.723-552.31zM81.92 52.866c70.217 18.367 138.646 43.236 209.676 58.189-51.037 48.599-101.75 98.011-150.187 149.374-32.183-63.553-42.91-137.996-59.49-207.563z" />
<glyph unicode="&#xe938;" horiz-adv-x="975" d="M144.010 277.008c184.483 184.808 371.241 367.502 555.723 552.31 53.801-51.525 105.163-105.488 158.314-157.826-191.309-177.331-370.916-367.34-559.299-548.084-51.525 51.2-102.725 102.725-154.738 153.6z" />
<glyph unicode="&#xe939;" horiz-adv-x="975" d="M81.92 52.866c16.579 69.567 27.307 144.010 59.49 207.563 48.437-51.363 99.149-100.775 150.187-149.374-71.030-14.954-139.459-39.822-209.676-58.189z" />
<glyph unicode="&#xe93a;" glyph-name="beizhu" d="M0.026-15.241h1023.948v-48.759h-1023.948v48.759zM28.282 38.59l0.098-0.561 1.463 0.268c0.122 0 0.244-0.073 0.366-0.073 2.072 0 4.071 0.439 5.851 1.195l266.495 48.15c9.289 1.731 18.187 6.217 25.379 13.409l586.137 586.137c19.041 19.065 19.041 49.93 0 68.97l-189.625 189.625c-19.041 19.041-49.905 19.065-68.946 0l-586.162-586.162c-7.119-7.143-11.58-15.92-13.36-25.111l-0.244 0.024-35.521-248.405-0.463-0.073 0.244-1.39-3.633-25.452c-0.78-1.804-1.195-3.779-1.195-5.876 0-7.631 5.754-13.701 13.116-14.677zM121.047 342.312l551.664 551.64c9.532 9.532 24.94 9.532 34.473 0l155.153-155.153c9.532-9.532 9.532-24.965 0-34.473l-551.664-551.664c-9.532-9.532-24.94-9.532-34.473 0l-155.153 155.177c-9.532 9.532-9.532 24.94 0 34.473zM95.009 264.907l140.135-140.135-164.392-29.597 24.258 169.732z" />
<glyph unicode="&#xe93b;" glyph-name="iconfont-bianji" d="M942.406 59.66h-813.808c-16.065 0-29.065-13.013-29.065-29.065s13-29.065 29.065-29.065h813.808c16.065 0 29.065 13.013 29.065 29.065s-13 29.065-29.065 29.065zM135.239 119.777l266.208 44.973c7.635 1.291 14.788 4.598 20.72 9.565l507.693 426.006c17.54 14.703 27.163 37.041 26.396 61.28-0.653 20.663-8.771 41.283-22.848 58.058l-117.138 139.575c-14.050 16.788-32.954 28.369-53.219 32.598-23.7 4.967-47.372-0.639-64.912-15.341l-507.693-425.978c-5.932-4.996-10.445-11.467-13.028-18.776l-90.515-254.357c-5.194-14.575-2.271-30.796 7.664-42.646 8.373-9.963 20.635-15.569 33.407-15.569 2.412 0.001 4.825 0.2 7.265 0.611zM255.585 391.349l492.537 413.277c0.426-0.397 0.88-0.866 1.334-1.419l117.165-139.604c0.454-0.554 0.823-1.079 1.135-1.575l-492.507-413.277-181.313-30.626 61.649 173.223z" />
<glyph unicode="&#xe93c;" glyph-name="shuaxin" d="M838.783 177.295c24.763 35.405 43.576 74.268 55.919 115.513 4.86 16.243-4.367 33.352-20.61 38.212s-33.351-4.368-38.212-20.61c-10.459-34.954-26.411-67.9-47.409-97.924-20.722-29.628-45.859-55.711-74.716-77.527-59.938-45.313-131.456-69.266-206.82-69.266-91.699 0-177.911 35.709-242.752 100.551s-100.551 151.052-100.551 242.753c0 91.699 35.709 177.91 100.551 242.752s151.052 100.551 242.752 100.551c40.131 0 79.421-6.852 116.782-20.365 23.315-8.433 45.531-19.34 66.415-32.551l-12.838-6.028-86.207-31.234c-14.622-5.29-24.34-30.053-19.067-44.744 4.145-11.535 21.359-22.999 32.877-22.999 3.172 0 10.67 0.548 13.826 1.694l158.077 70.106c7.373 2.682 13.423 8.201 16.755 15.344 3.334 7.144 3.722 15.343 1.058 22.77l-56.225 156.894c-5.556 15.486-19.313 36.313-42.187 32.874-16.171-2.434-27.636-24.779-22.081-40.264l31.164-86.967 1.591-5.89c-19.866 11.309-40.669 20.919-62.274 28.733-44.077 15.942-90.394 24.026-137.665 24.026-54.621 0-107.624-10.705-157.538-31.816-48.196-20.385-91.472-49.562-128.63-86.718-37.157-37.157-66.333-80.435-86.718-128.63-21.111-49.913-31.816-102.916-31.816-157.537s10.705-107.624 31.816-157.537c20.385-48.196 49.562-91.473 86.718-128.63s80.435-66.334 128.63-86.718c49.914-21.112 102.917-31.817 157.538-31.817 44.786 0 88.798 7.273 130.816 21.618 40.625 13.87 78.654 34.079 113.031 60.068 33.986 25.692 63.594 56.414 88.002 91.312z" />
<glyph unicode="&#xe93d;" glyph-name="home" d="M967.268 535.623l-394.641 311.907c-33.97 26.901-87.275 26.868-121.218 0l-394.607-311.907c-13.479-10.682-15.784-30.265-5.136-43.745 10.648-13.484 29.8-15.789 43.284-5.141l12.296 10.092v-377.142c0-53.461 56.331-93.409 105.866-93.409h622.751c48.952 0 80.961 37.549 80.961 93.409v375.678l11.365-8.629c5.729-4.514 12.766-6.695 19.522-6.695 9.184 0 18.402 4.048 24.535 11.836 10.68 13.479 8.534 33.063-4.98 43.745v0zM480.896 88.552v172.626c0 8.594 15.57 12.889 31.14 12.889s31.14-4.295 31.14-12.889v-172.626h-62.28zM854.551 119.687c0-20.644-5.702-31.135-18.687-31.135h-229.793c0 0.466-0.622 0.84-0.622 1.306v171.32c0 36.213-29.206 75.197-93.414 75.197-64.203 0-93.414-38.984-93.414-75.197v-171.32c0-0.466 0.842-0.84 0.842-1.306h-206.351c-19.522 0-43.593 16.876-43.593 31.135v426.369l320.066 252.617c11.488 9.094 32.227 9.094 43.749 0l321.216-254.080v-424.906z" />
<glyph unicode="&#xe93e;" glyph-name="dianpu" d="M828.53 846.222c22.471-25.202 64.91-76.288 96.711-135.908 78.279-146.603 21.504-203.435 2.788-222.094-20.821-20.821-52.907-45.625-87.552-45.625-39.538 0-79.474 32.768-106.951 87.723-9.671 19.399-29.412 31.46-50.859 31.46-1.365 0-2.674-0.057-4.039-0.171-22.926-1.65-42.667-16.953-49.948-38.741-21.902-65.707-74.638-89.088-116.679-89.088s-94.777 23.381-116.679 89.088c-7.282 21.845-27.022 37.148-49.948 38.741-1.365 0.114-2.731 0.171-4.039 0.171-21.447 0-41.188-12.060-50.859-31.46-27.307-54.67-67.413-87.268-107.179-87.268-27.591 0-56.491 15.132-85.902 44.885-108.316 109.852 44.828 300.772 95.801 358.286h635.335zM853.333 903.111h-685.056c0 0-280.917-283.25-111.388-455.111 42.724-43.292 86.016-61.838 126.407-61.838 65.252 0 122.88 48.412 158.037 118.727 28.444-85.333 99.556-128 170.667-128s142.222 42.667 170.667 128c35.157-70.315 92.331-119.182 157.867-119.182 40.448 0 84.139 18.603 127.772 62.293 169.472 169.472-114.972 455.111-114.972 455.111v0zM170.667-35.556c0-15.644-12.8-28.444-28.444-28.444v0c-15.644 0-28.444 12.8-28.444 28.444v341.333c0 15.644 12.8 28.444 28.444 28.444v0c15.644 0 28.444-12.8 28.444-28.444v-341.333zM910.222-35.556c0-15.644-12.8-28.444-28.444-28.444h-739.556c-15.644 0-28.444 12.8-28.444 28.444v0c0 15.644 12.8 28.444 28.444 28.444h739.556c15.644 0 28.444-12.8 28.444-28.444v0zM910.222-35.556c0-15.644-12.8-28.444-28.444-28.444v0c-15.644 0-28.444 12.8-28.444 28.444v341.333c0 15.644 12.8 28.444 28.444 28.444v0c15.644 0 28.444-12.8 28.444-28.444v-341.333zM853.333 647.111c0-15.644-12.8-28.444-28.444-28.444h-625.778c-15.644 0-28.444 12.8-28.444 28.444v0c0 15.644 12.8 28.444 28.444 28.444h625.778c15.644 0 28.444-12.8 28.444-28.444v0zM512 277.333c56.889 0 113.778-25.543 113.778-56.889h56.889c0 62.862-56.889 113.778-170.667 113.778s-170.667-50.916-170.667-113.778h56.889c0 31.346 56.889 56.889 113.778 56.889zM625.778 220.444h56.889v-284.444h-56.889v284.444zM341.333 220.444h56.889v-284.444h-56.889v284.444z" />
<glyph unicode="&#xe93f;" glyph-name="personage" d="M936.55-35.049h-842.909v31.103c0 161.052 90.926 305.55 231.616 376.335-71.305 56.918-113.698 143.238-113.698 236.932 0 167.355 136.17 303.551 303.551 303.551s303.551-136.195 303.551-303.551c0-93.694-42.421-179.987-113.698-236.932 140.663-70.783 231.589-215.283 231.589-376.335v-31.103zM157.162 27.158h715.893c-12.222 141.897-107.367 264.144-244.387 309.744l-70.538 23.514 66.262 33.707c81.471 41.489 132.059 123.919 132.059 215.2 0 133.072-108.272 241.372-241.372 241.372s-241.372-108.272-241.372-241.372c0-91.254 50.614-173.711 132.085-215.2l66.235-33.707-70.538-23.514c-136.991-45.654-232.109-167.847-244.332-309.744z" />
<glyph unicode="&#xe940;" glyph-name="shop_add" horiz-adv-x="2072" d="M402.286 557.714c0.244 103.619 0 207.238 0.244 310.857 36.328 0 72.899 0 109.47 0 0-103.619-0.244-207.482 0.244-311.101 103.619 0.244 206.994 0.244 310.613 0.244 0-36.571 0-73.143 0-109.714-103.619 0-207.238 0-310.857 0 0-103.619 0-207.238-0.244-310.857-36.328 0-72.899 0-109.47 0.244 0 103.375 0 206.75 0.244 310.37-103.619 0.488-207.482 0.244-311.101 0.244 0 36.571 0 72.899 0 109.47 103.619 0.244 207.238 0 310.857 0.244zM1126.888 199.070c62.903 39.010 153.6-17.067 140.922-91.429-4.632-71.924-104.594-108.983-154.331-56.808-44.861 39.497-35.596 116.297 13.41 148.236zM1472.122 191.756c51.2 44.617 144.823 8.29 148.968-60.952 11.703-60.465-51.444-118.004-110.202-101.912-75.093 9.265-98.255 119.223-38.766 162.865zM1833.204 200.29c103.375 63.147 194.56-112.152 87.528-163.109-104.107-63.634-192.61 113.128-87.528 163.109z" />
<glyph unicode="&#xe941;" glyph-name="wode" horiz-adv-x="1004" d="M437.308 960h20.48c125.289 5.421 249.173-91.758 252.185-221.465 16.464-165.045-82.723-379.683-268.449-387.112-182.513 28.311-270.657 242.547-245.358 408.797 12.85 117.66 126.695 200.383 241.142 199.78zM369.845 888.32c-77.704-26.303-126.695-108.424-121.274-189.139 3.413-109.026 56.621-226.083 157.013-277.283 53.208-29.917 113.042 3.815 151.391 41.964 75.093 77.503 113.845 193.355 90.955 299.771-28.511 116.053-173.076 170.867-278.086 124.687zM333.101 266.491c154.202 14.657 325.873 12.85 455.379-83.727 80.314-57.023 118.864-152.596 133.722-246.764h-61.038c-10.039 105.211-78.908 200.584-177.493 239.937-141.151 56.22-303.787 56.019-446.946 7.228-106.817-36.543-182.915-135.73-195.765-247.165h-40.96v81.719c41.161 146.773 188.938 233.311 333.101 248.772z" />
<glyph unicode="&#xe942;" glyph-name="good" d="M857.627-1.516h-692.074c-29.604 0-55.052 11.892-71.619 30.468-15.155 16.991-21.666 39.959-18.827 64.825l63.43 547.394c6.197 54.22 54.675 101.256 105.867 101.256h534.372c51.177 0 99.655-46.621 105.867-100.841l63.43-546.527c2.855-24.977-3.64-48.994-18.78-65.969-16.536-18.528-41.982-30.606-71.665-30.606zM244.403 672.843c-18.716 0-56.594-17.632-56.594-39.376 0-0.015 0-0.032 0-0.047l-56.147-546.17c-1.067-9.366 5.586-11.74 6.59-12.854 4.079-4.581 16.568-6.328 27.3-6.328h692.074c10.794 0 19.658 1.715 23.706 6.265 0.989 1.098 3.985 3.971 2.902 13.464l-63.43 544.020c-2.495 21.791-23.313 41.025-42.030 41.025h-534.372zM703.044 515.895c-17.744 0-29.164 14.387-29.164 32.131v160.025c0 90.524-74.127 164.182-162.706 164.182s-162.706-73.659-162.706-164.182v-160.025c0-17.744-11.42-32.131-29.164-32.131s-29.164 14.387-29.164 32.131v160.025c0 125.964 97.016 228.443 221.034 228.443s221.034-102.478 221.034-228.443v-160.025c0-17.744-11.42-32.131-29.164-32.131z" />
<glyph unicode="&#xe943;" glyph-name="fenlei-edit" d="M123.461 729.16c-29.481 0-53.368-23.905-53.368-53.368s23.887-53.368 53.368-53.368 53.368 23.904 53.368 53.368c0.001 29.463-23.887 53.368-53.368 53.368zM283.566 643.683h640.414c19.666 0 35.579 15.913 35.579 35.579s-15.913 35.579-35.579 35.579h-640.414c-19.648 0-35.579-15.913-35.579-35.579s15.931-35.579 35.579-35.579zM923.98 465.79h-640.414c-19.648 0-35.579-15.913-35.579-35.579s15.931-35.58 35.579-35.58h640.414c19.666 0 35.579 15.914 35.579 35.58 0.001 19.665-15.913 35.579-35.579 35.579zM923.98 216.738h-640.414c-19.648 0-35.579-15.914-35.579-35.578 0-19.666 15.931-35.58 35.579-35.58h640.414c19.666 0 35.579 15.914 35.579 35.58 0.001 19.664-15.913 35.578-35.579 35.578zM123.461 495.699c-29.481 0-53.368-23.904-53.368-53.369s23.887-53.369 53.368-53.369 53.368 23.904 53.368 53.369c0.001 29.465-23.887 53.369-53.368 53.369zM123.461 246.646c-29.481 0-53.368-23.904-53.368-53.367 0-29.465 23.887-53.369 53.368-53.369s53.368 23.904 53.368 53.369c0.001 29.463-23.887 53.367-53.368 53.367z" />
<glyph unicode="&#xe944;" glyph-name="yes" d="M1013.917 811.749l-528.813-780.977c-5.116-7.554-12.339-12.373-20.114-15.845-0.215-0.101-0.433-0.162-0.648-0.261-4.965-2.128-10.006-3.434-15.384-3.789-1.64-0.146-3.199-0.024-4.846 0-3.789 0.138-7.417 0.52-11.131 1.585-3.333 0.86-6.355 2.324-9.48 3.926-1.308 0.711-2.778 0.828-4.039 1.675-0.701 0.471-1.040 1.223-1.707 1.725-1.498 1.061-3.26 1.496-4.657 2.755l-397.504 358.006c-19.369 17.445-20.875 47.231-3.363 66.525 17.514 19.296 47.415 20.796 66.786 3.351l357.906-322.346 498.595 736.348c14.602 21.566 43.991 27.257 65.64 12.71s27.362-43.823 12.759-65.389z" />
<glyph unicode="&#xe945;" glyph-name="wodexingxing" horiz-adv-x="1103" d="M540.357 886.482c25.337 11.159 61.703 10.109 74.568-18.511 42.798-80.082 80.738-162.658 123.011-243.134 90.716-14.047 181.826-25.075 272.279-39.91 36.89-5.383 55.401-58.027 25.469-82.97-63.803-64.722-131.019-126.031-196.267-189.309 15.623-86.646 30.72-173.424 45.686-260.201 13.522-38.859-33.477-78.507-69.711-58.683-72.336 35.052-143.229 73.518-214.515 110.802-12.734 4.857-26.65 18.773-40.697 9.058-75.75-38.334-150.449-79.032-226.33-117.104-24.418-14.966-59.996-6.827-72.599 19.692-12.603 19.298-0.919 43.061 0.525 63.803 14.31 77.325 26.782 155.175 41.354 232.501-65.116 63.541-132.595 124.718-196.398 189.571-30.064 24.812-11.29 77.588 25.6 82.839 90.453 14.704 181.432 25.994 272.016 39.91 36.759 69.448 69.711 140.734 106.338 210.183 10.896-15.491 22.449-30.589 33.608-45.949-30.851-59.471-59.996-119.861-90.191-179.594-8.271-13.128-14.31-34.921-34.133-33.214-92.029-13.653-184.32-25.994-276.349-40.041 70.498-69.579 143.229-136.927 213.071-207.032-16.41-97.411-33.608-194.691-50.806-291.971 81.92 44.111 164.234 87.171 247.204 129.182 16.41 11.684 34.921 1.313 50.15-6.433 77.588-41.223 156.226-80.607 233.288-122.749-17.198 97.28-34.133 194.429-50.806 291.709 69.579 70.498 142.835 137.452 212.939 207.426-96.361 14.966-193.247 26.65-289.477 42.667-65.378 96.492-98.724 213.071-168.829 307.463z" />
<glyph unicode="&#xe946;" glyph-name="soushuos" horiz-adv-x="1061" d="M194.060 815.141c97.030 81.545 233.647 111.766 356.277 80.421 146.857-35.465 267.114-161.842 293.963-310.821 17.108-89.787 4.62-186.568-40.336-266.615-15.11-18.357-49.826 2.248-35.34 24.226 46.080 89.413 54.447 197.932 16.609 291.715-58.443 159.344-240.515 262.119-406.853 222.907-147.731-29.596-266.365-160.593-282.474-310.072-12.862-111.017 30.096-227.153 113.14-302.080 88.539-84.792 223.157-119.508 340.792-82.794 62.064 15.984 113.264 55.82 162.466 95.032 97.28-71.305 191.438-146.607 287.22-219.91-0.749-17.733-1.249-35.465-1.623-53.198-94.907 73.179-190.564 145.483-284.472 220.035-137.491-125.752-364.269-130.622-508.628-13.737-97.53 74.677-156.098 197.307-152.851 320.187-1.873 116.137 53.573 230.4 142.111 304.702z" />
<glyph unicode="&#xe947;" glyph-name="order" d="M753.002 816.198h-482.005c-40.605 0-73.639-33.042-73.639-73.639v-642.673c0-11.088 8.989-20.083 20.083-20.083 1.125 0 2.221 0.116 3.294 0.293 1.127-0.193 2.269-0.293 3.414-0.293 4.347 0 8.728 1.412 12.415 4.302l82.687 65.127 82.687-65.127c7.289-5.726 17.554-5.726 24.856 0l85.799 67.573 83.158-65.494c7.296-5.726 17.56-5.726 24.856 0l82.622 65.075 84.204-66.317c3.943-3.105 8.671-4.482 13.307-4.276 1.842-0.557 3.791-0.863 5.815-0.863 11.095 0 20.083 8.996 20.083 20.083v642.673c0.003 40.599-33.032 73.639-73.637 73.639zM690.803 192.602l-82.622-65.075-83.158 65.494c-7.296 5.726-17.56 5.726-24.856 0l-85.799-67.573-82.687 65.127c-7.296 5.727-17.56 5.727-24.856 0l-69.298-54.576v606.56c0 18.462 15.017 33.472 33.472 33.472h482.005c18.455 0 33.472-15.010 33.472-33.472v-605.724l-70.816 55.767c-7.297 5.726-17.561 5.726-24.857 0zM686.057 628.373h-348.114c-7.394 0-13.389-5.988-13.389-13.389s5.995-13.389 13.389-13.389h348.114c7.394 0 13.389 5.988 13.389 13.389s-5.996 13.389-13.389 13.389zM686.057 513.455h-348.114c-7.394 0-13.389-5.988-13.389-13.389s5.995-13.389 13.389-13.389h348.114c7.394 0 13.389 5.988 13.389 13.389s-5.996 13.389-13.389 13.389zM605.723 398.536h-267.78c-7.394 0-13.389-5.988-13.389-13.389s5.995-13.389 13.389-13.389h267.78c7.394 0 13.389 5.988 13.389 13.389s-5.995 13.389-13.389 13.389z" />
<glyph unicode="&#xe948;" glyph-name="xiazai" horiz-adv-x="1197" d="M582.749 840.445c-1.596 19.815-1.862 58.913 29.656 47.742 15.958-15.825 5.054-41.226 7.979-61.174-1.064-166.101 2.66-332.335-0.532-498.435 75.005 80.058 155.329 154.93 231.53 233.791 8.511-6.782 25.268-20.214 33.646-26.996-84.979-85.777-170.755-171.021-255.069-257.596-10.373-12.767-32.183-28.326-44.95-9.708-81.654 82.186-163.973 163.84-244.829 246.824-20.746 14.363-7.314 50.402 18.884 41.226 76.866-70.749 150.807-145.089 222.487-221.157 0.798 168.495 1.197 336.989 1.197 505.484zM70.483 534.708c-3.857 40.561 35.508 81.388 76.202 78.462 20.48 8.511 34.976-15.825 21.145-29.922-24.071-8.112-60.509-16.091-59.445-48.939-0.665-146.153 0.665-292.438 0.798-438.724-3.192-28.193 23.406-52.53 51.067-50.269 292.571 0.266 585.143 0.532 877.847 0.665 35.109-4.655 64.366 28.991 62.371 62.77 0.133 137.509 0.931 275.017 1.064 412.526 1.463 36.172-33.779 59.445-66.892 58.381-0.931 11.437-1.463 22.874-1.995 34.311 48.141 8.378 101.602-18.884 106.789-71.015 1.729-153.6 0.798-307.333 2.261-461.066-0.133-40.295-36.571-78.329-77.398-77.398-306.136 0.266-612.272 0.798-918.408 0.532-40.295-1.995-79.393 36.305-76.734 76.601 0.931 151.073 1.729 302.014 1.33 453.087z" />
<glyph unicode="&#xe949;" glyph-name="yuans" horiz-adv-x="1034" d="M416.627 901.773c128.502 22.588 268.75-4.016 371.451-86.839 15.059-26.102-18.874-46.682-39.354-29.114-68.568 49.594-152.596 75.796-236.825 78.808-123.583 0.602-246.061-55.517-325.773-150.187-63.147-73.387-97.782-169.663-100.593-266.14 0.201-111.536 45.277-223.071 125.791-300.775 80.013-82.522 196.267-126.595 310.613-123.382 126.093 5.622 248.37 70.375 322.359 172.775 93.264 123.984 108.424 301.176 34.435 437.911-6.024 16.364-26.504 34.836-12.75 52.405 5.823 12.348 22.689 11.144 33.33 6.726 67.162-100.493 86.739-228.894 63.147-346.554-24.295-121.274-100.593-230.4-204.8-296.558-131.614-86.136-308.304-96.778-450.158-29.515-101.798 46.582-183.818 132.016-228.894 234.215-54.111 125.089-51.401 274.573 9.537 396.75 63.046 128.402 188.235 222.77 328.483 249.475z" />
<glyph unicode="&#xe94a;" glyph-name="customer" horiz-adv-x="1036" d="M178.707 27.087c-15.378 0-27.882 12.408-27.882 27.655v74.904c0 149.855 90.852 282.751 231.458 338.575l15.914 6.321-13.508 10.53c-52.778 41.218-83.054 102.792-83.054 168.926 0 118.507 97.070 214.917 216.395 214.917s216.397-96.41 216.397-214.918c0-66.134-30.276-127.71-83.054-168.926l-13.508-10.53 15.914-6.321c140.619-55.824 231.472-188.72 231.458-338.575v-74.904c0-15.247-12.504-27.655-27.882-27.655h-678.65zM518.073 439.087c-171.747 0-311.471-138.817-311.471-309.443v-47.255h622.86v47.255c0 170.626-139.683 309.443-311.389 309.443zM518.032 813.618c-88.569 0-160.618-71.603-160.618-159.621s72.049-159.621 160.618-159.621 160.632 71.603 160.632 159.621-72.063 159.621-160.632 159.621zM27.895 139.452c-15.378 0-27.895 12.4-27.895 27.648v57.937c0 108.816 60.096 207.338 156.849 257.104l11.389 5.867-8.638 9.477c-29.973 32.827-46.479 75.096-46.479 119.023 0 93.824 75.887 172.661 169.848 177.283-14.759-19.951-25.914-41.024-33.782-63.72-47.634-16.458-80.289-62.489-80.289-113.562 0-47.778 28.335-91.43 72.187-111.21 12.187-4.601 19.698-14.436 19.698-25.701 0-11.451-8.184-21.864-20.371-25.914l-6.519-1.513c-104.885-26.299-178.103-119.696-178.103-227.13v-30.296h35.433c-3.136-18.212-4.979-36.788-5.447-55.288h-57.881zM949.888 139.459c-0.468 18.467-2.297 37.043-5.434 55.282h35.433v30.296c0 107.435-73.191 200.818-177.992 227.097l-7.482 1.782c-11.445 3.845-19.532 14.422-19.532 25.681 0 11.101 7.51 21.093 19.119 25.461 44.25 19.945 72.779 63.672 72.779 111.451 0 51.073-32.668 97.105-81.292 114.546-6.933 21.857-18.28 43.246-32.888 62.744 94.003-4.56 169.945-83.411 169.945-177.29 0-43.948-16.506-86.218-46.479-119.023l-8.639-9.477 11.403-5.867c96.726-49.759 156.823-148.273 156.823-257.104v-57.937c0-15.241-12.504-27.641-27.882-27.641h-57.881z" />
<glyph unicode="&#xe94b;" glyph-name="report" d="M142.868-64h123.453v265.134h-123.453v-265.134zM348.652-64h123.453v389.366h-123.453v-389.366zM579.133-64h123.453v488.817h-123.453v-488.817zM801.341-64h123.453v629.555h-123.453v-629.555zM911.196 681.554l48.66 278.446-276.726-62.423 85.361-80.896-240.558-251.74-119.153 107.561-344.637-355.656 50.381-49.316-0.164 0.041 297.615 307.118 119.521-107.848 288.195 301.384 91.505-86.671z" />
<glyph unicode="&#xe94c;" glyph-name="app" d="M329.267 900.454h-192.87c-63.898 0-115.763-52.019-115.763-116.070v-193.536c0-64.051 39.322-117.965 103.219-117.965h206.387c64 0 117.965 53.965 117.965 118.016v191.744c0 64.154-54.989 117.811-118.938 117.811v0zM403.968 590.95c0 0-17.254-73.728-73.728-73.728h-206.438c-21.248 0-58.982 52.429-58.982 73.728v191.693c0 47.616 31.744 73.728 73.728 73.728h191.693c48.486 0 73.728-27.904 73.728-73.728v-191.693zM329.267 384.205h-192.87c-63.898 0-115.763-52.019-115.763-116.122v-193.434c0-64.102 39.322-118.016 103.219-118.016h206.387c64 0 117.965 53.965 117.965 118.016v191.795c0 64.102-54.989 117.76-118.938 117.76v0zM403.968 74.65c0 0-17.254-73.728-73.728-73.728h-206.438c-21.248 0-58.982 52.48-58.982 73.728v191.795c0 47.565 31.744 73.677 73.728 73.677h191.693c48.486 0 73.728-27.904 73.728-73.677v-191.795zM845.312 384.205h-192.87c-63.898 0-115.814-52.019-115.814-116.122v-193.434c0-64.102 39.322-118.016 103.219-118.016h206.438c64 0 117.965 53.965 117.965 118.016v191.795c0 64.102-54.938 117.76-118.938 117.76v0zM919.962 74.65c0 0-17.203-73.728-73.626-73.728h-206.438c-21.197 0-58.982 52.48-58.982 73.728v191.795c0 47.565 31.795 73.677 73.779 73.677h191.642c48.486 0 73.626-27.904 73.626-73.677v-191.795zM969.421 770.253l-135.578 135.578c-45.363 45.312-122.112 44.442-167.27-0.819l-136.397-136.448c-45.158-45.21-45.158-118.63 0.102-164.045l136.806-136.806c45.312-45.312 111.155-55.552 156.314-10.394l146.022 146.022c45.21 45.261 45.261 121.6 0 166.912v0zM938.086 634.675l-145.971-146.022c-15.002-15.002-78.746-4.608-93.85 10.445l-135.475 135.578c-33.69 33.638-29.696 74.65 0 104.294l135.475 135.578c34.253 34.253 71.885 32.307 104.294 0l135.475-135.578c0.051 0 39.987-64.41 0.051-104.294v0z" />
<glyph unicode="&#xe94d;" glyph-name="eye" d="M512 780.8c-249.6 0-448-281.6-448-332.8s198.4-332.8 448-332.8 448 294.4 448 332.8c0 38.4-204.8 332.8-448 332.8zM780.8 294.4c-64-57.6-160-128-268.8-128-44.8 0-96 12.8-147.2 38.4-44.8 19.2-83.2 51.2-128 89.6-70.4 64-115.2 128-121.6 153.6 0 6.4 12.8 25.6 32 57.6 19.2 25.6 44.8 64 89.6 102.4 64 57.6 160 128 268.8 128s204.8-70.4 268.8-128c44.8-38.4 70.4-76.8 89.6-102.4 25.6-32 32-44.8 38.4-57.6-6.4-12.8-12.8-25.6-32-51.2s-51.2-64-89.6-102.4zM505.6 588.8c-76.8 0-140.8-64-140.8-140.8s64-140.8 140.8-140.8 140.8 64 140.8 140.8-64 140.8-140.8 140.8zM505.6 358.4c-44.8 0-89.6 38.4-89.6 89.6s38.4 89.6 89.6 89.6 89.6-38.4 89.6-89.6-38.4-89.6-89.6-89.6z" />
<glyph unicode="&#xe94e;" glyph-name="searchs" d="M894.387 140.986l-239.232 242.404c52.429 55.127 72.761 122.872 72.761 205.054 0 169.146-130.61 305.959-298.596 305.959-167.963 0-304.634-137.617-304.634-306.764s134.541-299.306 302.505-299.306c70.133 0 136.738 16.78 188.27 57.020l240.959-244.131c4.405-4.451 10.181-6.678 15.955-6.678 5.776 0 15.337 6.817 19.74 11.266 8.806 8.856 11.079 26.275 2.272 35.174zM172.832 591.428c0 140.363 113.378 254.499 252.724 254.499 139.368 0 252.749-114.136 252.749-254.499 0-140.317-113.381-254.5-252.749-254.5-139.346 0-252.724 114.183-252.724 254.5z" />
<glyph unicode="&#xe94f;" glyph-name="shop_clas" d="M576 896h-192v64h192v-64zM576 640h-192v64h192v-64zM384 704h-64v192h64v-192zM640 704h-64v192h64v-192zM256 256h-192v64h192v-64zM256 0h-192v64h192v-64zM64 64h-64v192h64v-192zM320 64h-64v192h64v-192zM960 256h-192v64h192v-64zM960 0h-192v64h192v-64zM768 64h-64v192h64v-192zM1024 64h-64v192h64v-192zM896 448h-768v64h768v-64zM192 320h-64v128h64v-128zM896 320h-64v128h64v-128zM512 512h-64v128h64v-128z" />
<glyph unicode="&#xe950;" glyph-name="search" d="M894.387 140.986l-239.232 242.404c52.429 55.127 72.761 122.872 72.761 205.054 0 169.146-130.61 305.959-298.596 305.959-167.963 0-304.634-137.617-304.634-306.764s134.541-299.306 302.505-299.306c70.133 0 136.738 16.78 188.27 57.020l240.959-244.131c4.405-4.451 10.181-6.678 15.955-6.678 5.776 0 15.337 6.817 19.74 11.266 8.806 8.856 11.079 26.275 2.272 35.174zM172.832 591.428c0 140.363 113.378 254.499 252.724 254.499 139.368 0 252.749-114.136 252.749-254.499 0-140.317-113.381-254.5-252.749-254.5-139.346 0-252.724 114.183-252.724 254.5z" />
<glyph unicode="&#xe951;" glyph-name="dagou" d="M1013.917 811.749l-528.813-780.977c-5.116-7.554-12.339-12.373-20.114-15.845-0.215-0.101-0.433-0.162-0.648-0.261-4.965-2.128-10.006-3.434-15.384-3.789-1.64-0.146-3.199-0.024-4.846 0-3.789 0.138-7.417 0.52-11.131 1.585-3.333 0.86-6.355 2.324-9.48 3.926-1.308 0.711-2.778 0.828-4.039 1.675-0.701 0.471-1.040 1.223-1.707 1.725-1.498 1.061-3.26 1.496-4.657 2.755l-397.504 358.006c-19.369 17.445-20.875 47.231-3.363 66.525 17.514 19.296 47.415 20.796 66.786 3.351l357.906-322.346 498.595 736.348c14.602 21.566 43.991 27.257 65.64 12.71s27.362-43.823 12.759-65.389z" />
<glyph unicode="&#xe952;" glyph-name="solid-add" d="M936.96 508.587h-366.080v366.080h-119.467v-366.080h-366.080v-119.467h366.080v-366.080h119.467v366.080h366.080z" />
<glyph unicode="&#xe953;" glyph-name="edit" horiz-adv-x="1027" d="M711.78 771.773l-305.827 181.129c-24.129 14.294-55.276 6.317-69.567-17.807l-336.387-567.969 393.206-232.883 25.875 43.688-76.454 45.281c-0.022 0.013-0.041 0.028-0.063 0.042l-272.998 161.687 297.572 502.433c7.148 12.063 22.72 16.051 34.785 8.904l262.139-155.255c12.065-7.148 16.051-22.715 8.906-34.785l-245.823-415.049 43.69-25.875 258.76 436.899c14.291 24.124 6.314 55.268-17.815 69.562zM196.603 250.683l152.914-90.568-269.354-106.039-36.474 287.173-43.689 25.876 41.348-378.586 351.858 145.701zM67.264-13.222h945.311c7.46 0 13.504-5.679 13.504-12.694v-25.391c0-7.004-6.044-12.692-13.504-12.692h-945.311c-7.457 0-13.504 5.687-13.504 12.692v25.391c0 7.014 6.048 12.694 13.504 12.694z" />
<glyph unicode="&#xe954;" glyph-name="error" d="M556.992 447.008l266.016 264q8.992 8.992 8.992 22.016t-8.992 23.008q-6.016 6.016-14.496 8.512t-16.512 0-15.008-8.512l-264.992-264-263.008 264q-8.992 8.992-22.496 8.992t-23.008-8.992-9.504-22.496 10.016-22.496l263.008-264-264.992-264q-10.016-8.992-10.016-22.496t9.504-22.496 22.496-8.992 23.008 8.992l264.992 264 264.992-267.008q10.016-8.992 23.008-8.992 3.008 0 6.016 0.512t6.016 1.504 5.504 3.008 5.504 4q8.992 10.016 8.992 23.008t-8.992 23.008z" />
<glyph unicode="&#xe955;" glyph-name="tele-phone" d="M913.293 779.706l-79.015 79.031c-21.822 21.822-57.192 21.822-79.015 0l-118.516-158.071c-18.114-26.763-21.822-57.209 0-79.031l48.352-48.369c-35.856-48.196-78.91-100.75-127.366-149.224-54.778-54.786-115.747-104.639-170.55-145.541l-46.736 46.746c0 0.008 0 0.008 0 0.008-21.814 21.823-52.259 18.115-79.014-0.008l-158.028-118.552c-26.477-18.314-21.814-57.2 0-79.031l79.014-79.031c43.645-43.653 100.403-29.654 158.028 0 0 0 174.414 97.954 323.741 247.307 140.452 140.496 249.104 325.695 249.104 325.695 22.647 62.306 43.636 114.418 0 158.071z" />
<glyph unicode="&#xe956;" glyph-name="dustbin" d="M832 704h-640c-17.664 0-32 14.336-32 32s14.336 32 32 32h640c17.664 0 32-14.336 32-32s-14.336-32-32-32v0zM800 64c0-35.328-28.672-64-64-64h-448c-35.328 0-64 28.672-64 64v576h576v-576zM416 864c0 17.664 14.336 32 32 32h128c17.664 0 32-14.336 32-32v-32h-192v32zM864 832h-192v64c0 35.328-28.672 64-64 64h-192c-35.328 0-64-28.672-64-64v-64h-192c-35.328 0-64-28.672-64-64v-64c0-35.328 28.672-64 64-64v-576c0-70.656 57.344-128 128-128h448c70.656 0 128 57.344 128 128v576c35.328 0 64 28.672 64 64v64c0 35.328-28.672 64-64 64v0zM512 64c17.664 0 32 14.336 32 32v384c0 17.664-14.336 32-32 32s-32-14.336-32-32v-384c0-17.664 14.336-32 32-32v0zM352 64c17.664 0 32 14.336 32 32v384c0 17.664-14.336 32-32 32s-32-14.336-32-32v-384c0-17.664 14.336-32 32-32v0zM672 64c17.664 0 32 14.336 32 32v384c0 17.664-14.336 32-32 32s-32-14.336-32-32v-384c0-17.664 14.336-32 32-32v0z" />
<glyph unicode="&#xe957;" glyph-name="upward" d="M888.266 303.287l-347.323 347.323c-4.223 4.223-9.142 7.317-14.383 9.31-0.96 0.364-1.928 0.704-2.907 0.993-2.825 0.836-5.724 1.35-8.64 1.563-1.96 0.145-3.927 0.147-5.887 0.011-9.498-0.664-18.809-4.615-26.070-11.877-0.001-0.001-0.001-0.001-0.002-0.002l-347.32-347.32c-15.985-15.985-15.985-41.902 0-57.888 15.985-15.984 41.902-15.984 57.887 0l318.379 318.379 318.378-318.379c15.985-15.984 41.902-15.984 57.888 0 15.985 15.986 15.985 41.903 0 57.887z" />
<glyph unicode="&#xe958;" glyph-name="icon-info" d="M512 832c212.032 0 384-171.968 384-384s-171.968-384-384-384-384 171.968-384 384 171.968 384 384 384zM512 896c-247.040 0-448-200.96-448-448 0-246.976 200.96-448 448-448 246.976 0 448 201.024 448 448 0 247.040-201.024 448-448 448v0zM480 520h64v-320h-64v320zM464 622.080c0-26.51 21.49-48 48-48s48 21.49 48 48c0 26.51-21.49 48-48 48s-48-21.49-48-48z" />
<glyph unicode="&#xe959;" glyph-name="checkmark" d="M511.999 895.185c-246.974 0-447.185-200.211-447.185-447.185s200.211-447.185 447.185-447.185 447.185 200.211 447.185 447.185-200.212 447.185-447.185 447.185zM792.447 595.592l-359.531-359.53c-2.922-2.922-6.617-4.613-10.49-5.128-6.634-1.994-14.123-0.376-19.364 4.866l-185.557 185.557c-7.593 7.593-7.593 19.903 0 27.496l23.064 23.064c7.592 7.593 19.903 7.593 27.496 0l149.793-149.793 324.029 324.029c7.342 7.341 19.549 7.037 27.265-0.678l22.619-22.619c7.715-7.716 8.019-19.923 0.676-27.264z" />
<glyph unicode="&#xe95a;" glyph-name="qq" d="M828.947 765.939c80.863-80.74 130.908-192.24 130.908-315.266 0-124.278-50.045-235.806-130.908-316.551-80.86-81.993-192.509-131.981-316.997-131.981-123.203 0-234.853 49.987-316.997 131.982-80.864 80.744-130.908 192.271-130.908 316.55 0 123.026 50.045 234.526 130.91 315.266 82.143 82.055 193.794 132.013 316.997 132.013 124.459 0 236.136-49.983 316.996-132.013v0zM792.994 170.017c70.593 71.753 115.531 170.445 115.501 280.656 0 108.933-44.908 207.588-115.501 279.376-71.841 71.753-170.677 115.319-281.044 115.319-109.078 0-207.919-43.535-279.792-115.319-71.872-71.756-116.784-170.444-116.784-279.376 0-110.212 44.912-208.904 116.784-280.656 71.873-71.784 170.714-115.35 279.792-115.35 110.367 0 209.203 43.566 281.044 115.35v0zM723.773 468.48c1.095 22.978 1.095 39.394-1.094 42.678-5.47 19.696-17.506 15.322-17.506 19.696 0 115.989-86.446 210.093-192.588 210.093s-191.492-93.010-191.492-208.999c0-8.753-7.658-2.189-14.227-19.695-3.28-7.663 1.095-13.132 0-42.678 0-7.658-35.015-44.863-48.147-83.162-13.127-38.296-15.316-77.689 5.474-93.010s40.489 51.43 42.673 41.583c1.095-4.379 2.19-8.756 4.379-13.13 6.565-18.606 17.511-38.3 33.922-57.995 3.284-4.379-20.789-10.942-33.922-35.015-14.226-24.073 4.379-68.941 74.411-68.941 90.82 0 110.515 31.736 112.705 31.736h14.226c8.753 0 5.474-1.095 13.132 0 4.379 0 48.147-38.299 109.424-31.736 103.954 10.946 87.538 45.962 79.879 68.941-8.753 22.978-38.3 33.921-37.205 36.11 25.168 27.353 28.452 44.863 37.205 70.031 3.284 10.943 27.357-57.994 45.957-41.583 7.658 6.568 22.978 33.921 7.658 93.010-16.412 57.992-45.958 71.124-44.864 82.066v0z" />
<glyph unicode="&#xe95b;" glyph-name="user" d="M623.104 428.373c58.914 37.103 98.27 102.537 98.27 177.152 0 115.473-93.935 209.408-209.374 209.408-115.473 0-209.408-93.935-209.408-209.408 0-74.65 39.356-140.083 98.304-177.152-133.359-46.251-229.547-172.817-229.547-321.707v-25.6h681.301v25.6c0 148.89-96.188 275.49-229.547 321.707zM353.792 605.525c0 87.245 70.963 158.208 158.208 158.208 87.211 0 158.174-70.963 158.174-158.208s-70.963-158.208-158.174-158.208c-87.245 0-158.208 70.997-158.208 158.208zM223.676 132.267c12.971 147.661 137.318 263.851 288.324 263.851s275.354-116.19 288.324-263.851h-576.649z" />
<glyph unicode="&#xe95c;" glyph-name="phone" horiz-adv-x="1025" d="M512.001-1.885c-248.073 0-449.886 201.827-449.886 449.899s201.813 449.872 449.886 449.872 449.886-201.799 449.886-449.872c0-248.074-201.813-449.899-449.886-449.899zM512.001 877.289c-236.709 0-429.291-192.583-429.291-429.276 0-236.721 192.583-429.278 429.291-429.278s429.29 192.557 429.29 429.278c0 236.695-192.582 429.276-429.29 429.276zM667.597 763.908h-308.808c-17.906 0-34.574-16.033-34.574-33.926v-585.614c0-17.894 16.668-32.34 34.574-32.34h308.808c17.907 0 32.19 14.447 32.19 32.34v585.614c0 17.893-14.283 33.926-32.19 33.926zM358.789 734.23h308.808c2.622 0 4.559-1.641 4.559-4.249v-520.732h-320.311v520.732c0 2.608 4.322 4.249 6.943 4.249zM535.712 177.724c0-13.112-10.609-23.705-23.703-23.705-13.109 0-23.719 10.596-23.719 23.705 0 13.108 10.61 23.705 23.719 23.705 13.094 0 23.703-10.598 23.703-23.705z" />
<glyph unicode="&#xe95d;" glyph-name="SMS" d="M954.225 767.442v0zM512.866 279.411l-29.135 27.232-97.161 87.661-280.567-265.405h813.448l-280.37 265.424-97.091-89.242-29.124-25.671zM64.231 692.878v-513.369l274.585 256.685-274.585 256.684zM960.549 179.584v513.206l-274.323-256.596 274.323-256.61zM512.854 354.585l441.37 412.857h-883.008l441.637-412.857z" />
<glyph unicode="&#xe95e;" glyph-name="tel" d="M159.439 0.768c-18.741 0-34.811 6.65-48.253 20.074-10.684 10.727-16.089 34.85-16.089 72.375 0 88.469 24.121 159.486 72.375 213.082 40.216 45.603 64.342 75.072 72.375 88.49 16.095 29.469 24.126 57.624 24.126 84.441 0 34.812 12.085 53.596 36.212 56.266v80.432c-53.725-2.689-80.413-18.784-80.413-48.272v-48.228c0-32.159-6.699-54.972-20.117-68.37-8.037-8.037-30.826-12.042-68.327-12.042-45.651 0-68.371 16.089-68.371 48.253 0 83.079 22.72 147.402 68.371 193.004 45.559 45.558 100.51 71.022 164.829 76.385h430.304c64.342-5.343 119.315-30.827 164.873-76.385 45.559-45.602 68.37-109.901 68.37-193.004 0-32.165-22.813-48.253-68.37-48.253-37.526 0-60.339 4.004-68.327 12.042-13.597 13.418-20.118 36.212-20.118 68.37v48.228c0 29.489-26.822 45.583-80.412 48.272v-80.432c24.126-2.671 36.213-21.456 36.213-56.266 0-26.817 7.989-54.972 24.126-84.441 7.989-13.418 32.115-42.887 72.332-88.49 48.248-53.596 72.375-124.637 72.375-213.082 0-37.526-5.343-61.647-16.046-72.375-13.442-13.442-29.512-20.074-48.296-20.074h-703.742zM649.984 121.348c37.526 34.855 56.378 80.412 56.378 136.723 0 56.309-18.876 101.868-56.378 136.741-32.159 34.83-76.427 52.282-132.664 52.282-56.291 0-100.555-17.427-132.718-52.282-37.589-34.855-56.287-80.432-56.287-136.741s18.698-101.845 56.287-136.723c32.164-34.807 76.427-52.257 132.718-52.257 56.262 0 100.505 17.427 132.664 52.257v0zM597.751 523.431c21.431 0 32.16 9.395 32.16 28.18v64.342h-237.253v-64.342c0-18.785 9.395-28.18 28.179-28.18h176.913z" />
<glyph unicode="&#xe95f;" glyph-name="address" d="M365.504 580.333c-0.112-80.821 67.421-148.058 147.905-147.272s147.221 67.176 147.221 146.466c0.010 79.617-66.757 145.639-147.456 145.792-81.239 0.174-147.558-64.941-147.67-144.986zM512.449-64c-107.295 145.17-217.938 284.92-317.599 431.977-160.213 236.401-16.309 545.274 260.078 587.394 241.994 36.874 450.113-151.344 440.775-394.389-2.888-75.167-27.107-143.353-71.585-203.915-98.855-134.617-198.455-268.672-297.769-402.942-3.98-5.399-8.155-10.645-13.901-18.126z" />
<glyph unicode="&#xe960;" glyph-name="money" d="M522.747 860.146c-229.791 0-416.768-186.943-416.768-416.749 0-229.812 186.976-416.754 416.768-416.754s416.768 186.942 416.768 416.754c0 229.805-186.976 416.749-416.768 416.749zM522.747 71.352c-205.143 0-372.028 166.902-372.028 372.045 0 205.139 166.885 372.024 372.028 372.024s372.029-166.886 372.029-372.024c0-205.143-166.886-372.045-372.029-372.045zM623.567 661.391l-66.181-121.95c-17.664-33.040-28.431-55.022-32.39-65.903h-1.142c-11.633 26.474-44.476 89.072-98.552 187.853h-62.254l115.759-198.836h-94.908v-43.956h111.248v-60.546h-111.247v-44.476h111.248v-88.179h55.2v88.179h107.318v44.476h-107.319v60.546h107.318v43.956h-92.1l116.882 198.836h-58.881z" />
<glyph unicode="&#xe961;" glyph-name="qqs" d="M971.465 291.341l-2.466 17.638-3.155 17.206-2.507 8.841-2.42 9.403-3.201 8.971-3.286 9.986-3.762 9.403-4.106 9.663-7.307 15.78-6.485 13.9-6.484 12.428-5.664 11.589-6.484 10.547-4.755 9.685-10.073 14.462-12.669 19.26-2.939 4.755-0.994 2.032v1.601l2.118 6.506 2.939 5.793 2.551 11.435 1.427 5.902v6.096l0.736 4.907v4.929l-0.736 5.663-0.821 4.626-1.86 9.382-2.421 9.122-2.205 8.366-3.458 8.129-3.891 6.787-3.071 6.376-3.414 6.074-5.362 8.95-1.988 3.176-0.606 2.767-2.464 17.359-1.599 11.436-1.816 14.158-2.81 14.635-4.41 16.774-2.507 9.403-1.991 7.955-2.766 9.252-3.113 9.836-3.113 9.122-3.978 9.814-8.126 18.958-4.799 8.971-5.795 10.289-5.446 8.819-5.448 9.987-7.696 9.253-6.483 8.971-7.912 9.252-8.041 8.387-8.13 8.106-9.641 8.41-5.058 3.025-4.798 4.194-10.376 7.371-12.018 7.977-12.28 7.22-12.667 6.506-13.834 5.944-12.971 5.642-13.533 4.929-14.785 4.043-13.532 3.61-14.397 3.156-13.618 3.329-14.698 1.599-14.398 1.751-14.351 1.881h-42.975l-14.569-0.844-27.28-3.783-13.834-2.313-13.705-2.615-12.97-3.177-12.97-4.193-12.062-4.194-12.062-4.042-12.106-5.944-11.414-4.778-10.117-5.794-10.549-6.506-9.728-6.788-9.597-7.651-7.911-7.112-12.408-11.695-10.29-10.873-9.857-10.549-9.037-10.722-8.473-10.981-7.436-10.7-7.219-10.7-3.372-4.778-3.113-5.793-6.745-10.139-5.361-10.117-4.755-9.553-4.151-10.118-4.064-9.251-3.372-8.691-3.112-9.251-3.157-8.539-4.194-15.478-3.069-14.895-1.686-12.45-1.73-10.722v-20.816l-2.94-3.2-2.681-4.346-2.118-3.89-1.817-4.193-2.291-9.123-2.508-8.388-0.821-7.501-0.562-5.512v-5.923l-5.794-8.409-4.107-8.388-3.112-8.084-2.292-7.241-1.772-6.94-1.687-6.527v-16.624l0.994-4.043 1.426-7.393 1.773-5.642-3.199-2.464-9.080-6.788-11.975-10.98-7.35-6.508-7.176-6.376-4.929-5.080-4.064-4.475-8.734-9.402-8.301-9.403-6.485-8.107-7.782-11.717-7.435-10.547-7.35-11.739-6.182-10.851-5.145-11.545-5.448-10.72-3.978-10.55-4.193-11.002-3.113-10.7-3.070-11.003-2.723-9.555-1.514-10.269-1.686-9.533-1.427-9.273-0.863-18.072v-24.296l0.863-7.393 2.293-12.582 0.82-5.534 1.514-5.619 1.859-5.32 1.73-3.759 2.767-6.961 2.119-1.427 1.296-2.939 1.644-0.691h1.686l7.22 0.691 7.35 1.901 6.182 2.466 6.485 4.193 5.923 3.891 5.361 5.102 5.794 5.318 4.886 5.492 4.668 6.225 4.237 5.622 3.978 4.666 2.464 5.362 4.842 8.82 1.513 3.611 0.864 2.161 0.431 2.465 1.125 2.032 0.864 0.432 1.644 0.866h1.037l0.432-0.866h0.821l0.822-0.432 2.723-11.997 2.94-9.685 3.934-10.159 3.977-9.121 3.33-9.081 5.145-7.953 3.76-8.389 4.238-7.694 4.884-6.657 3.718-6.4 9.857-11.845 8.604-10.55 8.301-8.215 8.172-7.393 7.090-5.793 10.549-9.382 4.237-2.075 1.425-1.989v-0.994l-0.993-0.908h-0.432l-2.119-0.692-7.912-0.605-7.349-0.994-6.183-0.865-6.485-1.425-5.664-1.773-5.62-1.73-4.929-2.638-3.89-2.422-4.974-1.599-3.112-2.594-3.329-2.032-3.589-2.895-4.496-5.622-1.686-2.638-2.075-2.291-2.854-5.924-1.555-4.93-1.861-4.926-0.389-4.324v-8.127l-0.821-4.020v-4.108l-0.994-4.020v-3.589l0.994-3.933 0.821-3.501 2.25-6.746 1.555-3.199 1.989-3.198 2.205-3.156 2.421-2.769 3.244-3.155 2.421-2.594 7.176-5.362 7.22-4.495 8.258-4.064 8.906-3.631 9.424-3.89 10.463-2.423 10.42-3.501 11.283-2.336 11.241-1.686 11.586-1.774 11.976-1.73 23.606-2.463 24.339-0.432h43.104l10.548 0.432 9.037 1.035 8.733 0.692 8.172 0.735 13.143 2.595 9.467 2.594 8.994 2.336 16.601 6.959 7.523 2.855 7.175 3.631 11.848 6.656 10.677 5.363 7.912 5.057 5.793 5.364 16.040-1.774 13.834-0.995h11.975l4.194-0.864 4.281-1.731 6.787-2.461 7.564-2.596 14.398-4.496 14.698-5.36 14.31-4.15 14.44-2.942 14.742-3.717 15.262-2.205 14.482-1.599 14.527-2.032 13.575-1.298 14.526-0.819h40.294l12.969 1.554 12.711 0.563 12.235 2.032 11.283 2.507 11.284 2.423 10.81 2.592 4.493 1.298 5.017 1.644 9.383 3.717 8.344 3.891 7.868 4.064 7.349 4.236 6.485 4.884 2.551 2.639 3.070 3.587 3.933 4.799 4.28 5.923 1.558 2.984 0.691 2.506 1.815 3.2 0.692 3.459v3.33l0.866 3.328-0.866 4.884-0.692 4.194-1.815 4.929-1.427 4.064-2.681 4.93-3.241 4.494-3.113 3.891-4.194 3.286-8.647 7.523-9.684 7.263-9.771 5.792-10.29 5.924-23.518 11.587-5.621 3.459-1.555 1.599-0.996 1.037 11.329 11.415 4.886 5.62 4.063 5.189 7.911 11.457 7.479 11.717 6.313 10.419 5.966 9.987 7.998 19.972 6.226 16.602 4.106 11.759 2.379 3.892 1.426 3.156 2.465 1.903h1.037l0.692-0.434 6.052-12.018 5.405-11.586 3.804-6.53 3.933-5.619 3.892-6.917 5.015-6.833 4.193-4.755 2.551-2.592 2.508-2.337 2.292-1.727 2.206-1.601 4.841-2.465 2.508-0.864h3.933l2.552 0.864 3.157 1.601 3.502 1.601 2.895 2.592 2.723 3.028 3.070 3.761 2.421 2.895 2.725 4.671 2.034 3.759 2.42 5.32 1.296 4.495 3.503 10.981 2.29 12.149 1.642 13.468 1.124 7.824v21.985z" />
<glyph unicode="&#xe962;" glyph-name="phones" d="M718.234 960h-463.77c-41.626 0-75.264-31.923-75.264-71.168v-881.587c0-39.142 33.638-71.245 75.264-71.245h463.821c41.805 0 75.315 32.102 75.315 71.245v881.587c-0.102 39.245-33.587 71.168-75.366 71.168v0zM475.059-34.995c-20.813 0-37.606 15.949-37.606 35.686 0 19.533 16.768 35.584 37.606 35.584 20.71 0 37.555-16.051 37.555-35.584-0.026-19.814-16.87-35.686-37.555-35.686v0zM750.438 67.251h-528.179v846.080h528.205v-846.080h-0.026z" />
<glyph unicode="&#xe963;" glyph-name="uaer_conter" d="M983.466 108.8c0-51.2-19.2-96-51.2-128s-76.8-44.8-128-44.8h-582.4c-51.2 0-96 12.8-128 44.8s-51.2 76.8-51.2 128c0 25.6 0 44.8 0 70.4s6.4 44.8 6.4 70.4c6.4 25.6 12.8 51.2 19.2 70.4s19.2 44.8 25.6 64c12.8 19.2 25.6 38.4 38.4 51.2s32 25.6 57.6 38.4 44.8 12.8 76.8 12.8c6.4 0 12.8-6.4 25.6-12.8s32-19.2 51.2-32c19.2-12.8 44.8-25.6 70.4-32 32-6.4 57.6-12.8 89.6-12.8s57.6 6.4 89.6 12.8c32 6.4 51.2 19.2 70.4 32s32 25.6 51.2 32 25.6 12.8 25.6 12.8c25.6 0 51.2-6.4 76.8-12.8s38.4-19.2 57.6-38.4c12.8-12.8 32-32 38.4-51.2 12.8-19.2 19.2-44.8 25.6-64s12.8-44.8 19.2-70.4c6.4-25.6 6.4-51.2 6.4-70.4 19.2-25.6 19.2-44.8 19.2-70.4zM765.866 704c0-70.4-25.6-128-76.8-179.2-44.8-51.2-108.8-76.8-179.2-76.8s-128 25.6-179.2 76.8-76.8 108.8-76.8 179.2 25.6 128 76.8 179.2 108.8 76.8 179.2 76.8 128-25.6 179.2-76.8c51.2-51.2 76.8-108.8 76.8-179.2z" />
<glyph unicode="&#xe964;" glyph-name="user_portrait" d="M673.984 791.424c7.616-31.232 8.512-33.792 7.744-65.792-0.384-12.352-7.36-69.44-5.504-86.848 1.536-14.464 5.12-15.616 11.008-27.52 9.856-20.608 6.656-49.216 2.752-70.080-2.112-11.456-6.528-27.712-13.12-37.056-7.36-10.24-22.272-10.368-28.608-22.4-9.344-17.28-4.096-41.408-9.856-60.032-6.912-21.184-24-22.592-25.28-50.176 8.384-1.28 16.768-2.368 25.28-3.648 8.384-17.856 23.616-53.888 39.36-64.768 13.12-3.52 26.368-7.104 39.488-10.752 46.272-18.88 97.344-41.472 143.616-60.992 42.112-17.728 92.608-24.128 107.904-68.224 0-30.016 2.88-100.864 1.984-140.096h-917.44c-0.768 39.232 2.112 110.336 2.112 140.096 15.168 44.096 65.6 50.496 107.712 68.224 46.272 19.52 97.536 42.112 143.68 60.992 13.184 3.648 26.368 7.296 39.552 10.752 15.744 10.88 31.104 46.784 39.552 64.768l18.688 4.48c-4.16 23.616-18.816 25.344-24.96 42.24-2.432 25.088-4.864 50.24-7.168 75.264 0.064-1.216-17.28 3.2-19.52 4.608-24.384 15.232-24.896 77.376-27.264 103.168-1.024 11.84 15.424 21.504 10.752 43.2-26.752 126.656 11.584 185.92 72.128 205.632 42.048 17.024 120.512 48.512 193.792 3.584l17.984-16.832 29.504-5.12c14.784-8.512 24.128-36.672 24.128-36.672z" />
<glyph unicode="&#xe965;" glyph-name="finger" d="M630.715 119.43c0-51.942-42.282-94.225-94.225-94.225-140.924 0-258.842 23.372-340.946 67.587-41.521 22.406-73.727 49.874-95.789 81.712-22.842 32.941-34.39 69.84-34.39 109.821v235.563c0 5.153 1.472 33.079 29.86 73.429 36.185 51.438 99.377 99.93 187.713 144.144 187.6 93.811 249.18 123.9 252.033 125.281 45.64 22.774 103.565 6.488 129.19-36.255 12.515-20.889 15.921-45.364 9.526-68.876-6.58-24.108-22.499-44.214-44.906-56.452l-109.913-63.446h347.364c51.988 0 94.224-42.281 94.224-94.224s-42.236-94.225-94.224-94.225h-154.037c8.097-13.849 12.698-29.997 12.698-47.114 0-41.039-26.408-76.004-63.078-88.887 10.076-15.045 15.965-33.034 15.965-52.45 0-41.040-26.407-76.006-63.078-88.887 10.076-15.047 15.966-33.034 15.966-52.45l0.046-0.048zM217.767 134.291c75.293-40.534 185.483-61.974 318.631-61.974 25.948 0 47.113 21.165 47.113 47.113s-21.165 47.112-47.113 47.112h-23.557c-12.997 0-23.557 10.538-23.557 23.557 0 13.023 10.558 23.558 23.557 23.558h70.67c25.947 0 47.113 21.165 47.113 47.113s-21.166 47.113-47.113 47.113h-23.557c-12.997 0-23.558 10.535-23.558 23.555s10.559 23.558 23.558 23.558h70.67c25.948 0 47.112 21.164 47.112 47.112s-21.164 47.112-47.112 47.112h-70.67c-12.997 0-23.558 10.583-23.558 23.558 0 12.976 10.559 23.557 23.558 23.557h306.231c25.949 0 47.113 21.164 47.113 47.114 0 25.947-21.164 47.112-47.113 47.112h-368.042c-31.47 0-49.85 9.294-54.497 27.651-4.669 18.356 6.855 35.242 34.322 50.286l127.444 73.523c0.138 0.092 0.321 0.184 0.506 0.276 11.089 6.074 19.001 15.92 22.176 27.697 2.991 10.996 1.472 22.452-4.417 32.253-13.066 21.763-44.122 30.135-67.816 18.312-0.046-0.046-0.093-0.046-0.184-0.093-0.575-0.276-60.731-29.629-251.735-125.096-97.423-48.677-144.443-94.502-166.779-124.314-22.383-29.905-24.591-49.781-24.729-51.575v-235.104c0-77.11 57.281-124.222 105.381-150.079h-0.046z" />
<glyph unicode="&#xe966;" glyph-name="xinlang" d="M511.176 909.775c-248.116 0-449.258-201.142-449.258-449.254 0-248.103 201.142-449.272 449.258-449.272 248.111 0 449.253 201.172 449.253 449.272-0.001 248.111-201.142 449.254-449.253 449.254zM759.818 489.193c-2.144-14.845-9.517-16.032-18.282-16.032-10.49 0-18.979 6.611-18.979 17.106 0 9.103 3.768 18.353 3.768 18.353 1.116 3.827 9.995 27.659-5.853 63.234-29.003 48.766-87.443 49.491-94.342 46.707-6.951-2.725-17.238-4.116-17.238-4.116-10.547 0-19.021 8.611-19.021 19.048 0 8.785 5.866 16.207 13.864 18.468 0 0 0.173 0.291 0.464 0.349 0.579 0.116 1.159 0.71 1.797 0.768 8.127 1.551 37.144 7.263 65.337 0.652 50.473-11.8 119.751-60.624 88.602-164.536h-0.117zM622.018 559.357c-7.242 0-13.068 5.857-13.068 13.062 0 7.32 5.826 13.176 13.068 13.176 0 0 81.577 15.105 71.828-72.627 0-0.522-0.059-0.928-0.174-1.391-0.927-6.205-6.39-10.975-12.821-10.975-7.258 0-13.17 5.813-13.17 13.062 0 0.001 12.923 58.639-45.663 45.693zM628.623 534.567c22.109-22.121 3.651-52.55 3.651-52.55s-9.154-10.162 9.708-13.814c18.92-3.77 78.374-31.343 45.662-101.013-32.739-69.554-140.643-103.418-220.61-97.14-76 5.987-173.716 31.239-183.813 123.264 0 0-5.332 41.691 35.059 95.619 0 0 58.065 81.166 125.72 104.331 67.712 23.036 75.594-15.961 75.594-39.011-3.594-19.569-10.313-31.065 15.097-23.165-0.001 0.001 66.553 30.879 93.932 3.479zM472.945 484.41c-79.36-3.667-143.539-46.214-143.539-99.288 0-53.013 64.179-92.835 143.539-89.123 79.448 3.609 143.741 53.361 143.741 106.361 0.001 52.955-64.292 85.703-143.741 82.050zM407.913 329.5c-22.223 12.075-21.397 35.778-21.397 35.778s-9.243 74.831 70.61 84.165c79.941 9.293 94.226-67.12 69.916-98.519s-72.409-46.734-119.129-21.424zM435.656 390.747c-14.922-1.551-25.584-14.568-25.584-26.993 0-12.479 11.995-21.075 26.917-19.324 14.834 1.685 26.917 13.163 26.917 25.603-0.001 12.466-11.127 22.352-28.25 20.714zM488.215 399.751c-2.666 4.42-8.809 5.682-14.734 1.275-5.113-3.711-6.157-10.785-3.375-15.207 2.665-4.539 8.895-5.061 13.937-1.276 4.925 3.9 6.837 10.685 4.172 15.208z" />
<glyph unicode="&#xe967;" glyph-name="wechat" d="M359.987 585.884c17.088 0 28.555 11.618 28.555 28.924 0 17.387-11.468 28.85-28.555 28.85-17.081 0-34.322-11.463-34.322-28.85 0-17.306 17.241-28.924 34.322-28.924zM519.611 643.659c-17.088 0-34.249-11.463-34.249-28.85 0-17.307 17.162-28.924 34.249-28.924 17.227 0 28.622 11.618 28.622 28.924 0 17.386-11.395 28.85-28.622 28.85zM719.244 429.794c17.162 0 28.621 11.468 28.621 23.082 0 11.54-11.459 23.157-28.621 23.157-11.24 0-22.563-11.618-22.563-23.157 0.001-11.613 11.322-23.082 22.563-23.082zM593.797 429.794c17.307 0 28.547 11.468 28.547 23.082 0 11.54-11.24 23.157-28.547 23.157-11.315 0-22.782-11.618-22.782-23.157 0-11.613 11.467-23.082 22.782-23.082zM78.596 464.716c0-248.335 201.286-449.612 449.628-449.612s449.628 201.277 449.628 449.612-201.286 449.609-449.628 449.609c-248.342 0-449.628-201.274-449.628-449.609zM642.279 581.014c-108.36 0-193.939-81.978-193.939-182.917 0-16.861 2.627-33.048 7.048-48.481-7.048-0.6-14.095-0.899-21.282-0.899-28.483 0-51.41 5.843-79.886 11.613l-79.739-40.54 22.782 69.541c-57.104 40.464-91.271 92.546-91.271 156.016 0 110.002 102.74 196.626 228.115 196.626 112.18 0 210.427-69.238 230.127-162.31-7.187 0.824-14.535 1.351-21.955 1.351zM850.459 400.798c0-52.081-34.095-98.243-79.886-133.008l17.162-57.852-62.571 34.694c-22.863-5.77-45.71-11.54-68.425-11.54-108.506 0-194.085 75.161-194.085 167.707 0 92.468 85.58 167.776 194.085 167.776 102.44-0.001 193.72-75.309 193.72-167.777z" />
</font>
</defs>
</svg>
